<svg width="1979" height="1017" viewBox="0 0 1979 1017" fill="none" xmlns="http://www.w3.org/2000/svg">
<path d="M145.5 456C145.5 415.959 113.041 383.5 73 383.5C32.9594 383.5 0.500002 415.959 0.5 456L145.5 456ZM0.49998 924L0.499976 996.5L145.5 996.5L145.5 924L0.49998 924ZM0.5 456L0.49998 924L145.5 924L145.5 456L0.5 456Z" fill="url(#paint0_linear_517_1429)"/>
<path d="M286.5 287C286.5 246.959 254.041 214.5 214 214.5C173.959 214.5 141.5 246.959 141.5 287L286.5 287ZM141.5 914L141.5 986.5L286.5 986.5L286.5 914L141.5 914ZM141.5 287L141.5 914L286.5 914L286.5 287L141.5 287Z" fill="url(#paint1_linear_517_1429)"/>
<path d="M430.499 202.407C430.724 162.367 398.447 129.726 358.407 129.501C318.367 129.276 285.726 161.553 285.501 201.593L430.499 202.407ZM281.501 913.593L281.094 986.092L426.092 986.906L426.499 914.407L281.501 913.593ZM285.501 201.593L281.501 913.593L426.499 914.407L430.499 202.407L285.501 201.593Z" fill="url(#paint2_linear_517_1429)"/>
<path d="M567.5 343C567.5 302.959 535.041 270.5 495 270.5C454.959 270.5 422.5 302.959 422.5 343L567.5 343ZM422.5 914L422.5 986.5L567.5 986.5L567.5 914L422.5 914ZM422.5 343L422.5 914L567.5 914L567.5 343L422.5 343Z" fill="url(#paint3_linear_517_1429)"/>
<path d="M712.5 452C712.5 411.959 680.041 379.5 640 379.5C599.959 379.5 567.5 411.959 567.5 452L712.5 452ZM567.5 924L567.5 996.5L712.5 996.5L712.5 924L567.5 924ZM567.5 452L567.5 924L712.5 924L712.5 452L567.5 452Z" fill="url(#paint4_linear_517_1429)"/>
<path d="M851.5 417C851.5 376.959 819.041 344.5 779 344.5C738.959 344.5 706.5 376.959 706.5 417L851.5 417ZM706.5 914L706.5 986.5L851.5 986.5L851.5 914L706.5 914ZM706.5 417L706.5 914L851.5 914L851.5 417L706.5 417Z" fill="url(#paint5_linear_517_1429)"/>
<path d="M1135.5 202C1135.5 161.959 1103.04 129.5 1063 129.5C1022.96 129.5 990.5 161.959 990.5 202L1135.5 202ZM990.5 924L990.5 996.5L1135.5 996.5L1135.5 924L990.5 924ZM990.5 202L990.5 924L1135.5 924L1135.5 202L990.5 202Z" fill="url(#paint6_linear_517_1429)"/>
<path d="M1276.5 124C1276.5 83.9594 1244.04 51.5 1204 51.5C1163.96 51.5 1131.5 83.9594 1131.5 124L1276.5 124ZM1131.5 944L1131.5 1016.5L1276.5 1016.5L1276.5 944L1131.5 944ZM1131.5 124L1131.5 944L1276.5 944L1276.5 124L1131.5 124Z" fill="url(#paint7_linear_517_1429)"/>
<path d="M1417.5 313C1417.5 272.959 1385.04 240.5 1345 240.5C1304.96 240.5 1272.5 272.959 1272.5 313L1417.5 313ZM1272.5 944L1272.5 1016.5L1417.5 1016.5L1417.5 944L1272.5 944ZM1272.5 313L1272.5 944L1417.5 944L1417.5 313L1272.5 313Z" fill="url(#paint8_linear_517_1429)"/>
<path d="M1558.5 73C1558.5 32.9594 1526.04 0.499998 1486 0.5C1445.96 0.500002 1413.5 32.9594 1413.5 73L1558.5 73ZM1413.5 944L1413.5 1016.5L1558.5 1016.5L1558.5 944L1413.5 944ZM1413.5 73L1413.5 944L1558.5 944L1558.5 73L1413.5 73Z" fill="url(#paint9_linear_517_1429)"/>
<path d="M1700.5 153C1700.5 112.959 1668.04 80.5 1628 80.5C1587.96 80.5 1555.5 112.959 1555.5 153L1700.5 153ZM1555.5 944L1555.5 1016.5L1700.5 1016.5L1700.5 944L1555.5 944ZM1555.5 153L1555.5 944L1700.5 944L1700.5 153L1555.5 153Z" fill="url(#paint10_linear_517_1429)"/>
<path d="M1841.5 322C1841.5 281.959 1809.04 249.5 1769 249.5C1728.96 249.5 1696.5 281.959 1696.5 322L1841.5 322ZM1696.5 944L1696.5 1016.5L1841.5 1016.5L1841.5 944L1696.5 944ZM1696.5 322L1696.5 944L1841.5 944L1841.5 322L1696.5 322Z" fill="url(#paint11_linear_517_1429)"/>
<path d="M1978.5 250C1978.5 209.959 1946.04 177.5 1906 177.5C1865.96 177.5 1833.5 209.959 1833.5 250H1978.5ZM1833.5 944V1016.5H1978.5V944H1833.5ZM1833.5 250V944H1978.5V250H1833.5Z" fill="url(#paint12_linear_517_1429)"/>
<path d="M992.5 264C992.5 223.959 960.041 191.5 920 191.5C879.959 191.5 847.5 223.959 847.5 264L992.5 264ZM847.5 924L847.5 996.5L992.5 996.5L992.5 924L847.5 924ZM847.5 264L847.5 924L992.5 924L992.5 264L847.5 264Z" fill="url(#paint13_linear_517_1429)"/>
<defs>
<linearGradient id="paint0_linear_517_1429" x1="72.5" y1="456" x2="72.5" y2="924" gradientUnits="userSpaceOnUse">
<stop offset="0.125" stop-color="#98E176"/>
<stop offset="0.315" stop-color="#F2F2F2" stop-opacity="0.9"/>
<stop offset="0.385" stop-color="#F2F2F2" stop-opacity="0.95"/>
<stop offset="0.475" stop-color="#F2F2F2"/>
</linearGradient>
<linearGradient id="paint1_linear_517_1429" x1="213.5" y1="287" x2="213.5" y2="914" gradientUnits="userSpaceOnUse">
<stop offset="0.125" stop-color="#98E176"/>
<stop offset="0.315" stop-color="#F2F2F2" stop-opacity="0.9"/>
<stop offset="0.385" stop-color="#F2F2F2" stop-opacity="0.95"/>
<stop offset="0.475" stop-color="#F2F2F2"/>
</linearGradient>
<linearGradient id="paint2_linear_517_1429" x1="357.5" y1="201.997" x2="353.5" y2="913.997" gradientUnits="userSpaceOnUse">
<stop offset="0.125" stop-color="#98E176"/>
<stop offset="0.315" stop-color="#F2F2F2" stop-opacity="0.9"/>
<stop offset="0.385" stop-color="#F2F2F2" stop-opacity="0.95"/>
<stop offset="0.475" stop-color="#F2F2F2"/>
</linearGradient>
<linearGradient id="paint3_linear_517_1429" x1="494.5" y1="343" x2="494.5" y2="914" gradientUnits="userSpaceOnUse">
<stop offset="0.125" stop-color="#98E176"/>
<stop offset="0.315" stop-color="#F2F2F2" stop-opacity="0.9"/>
<stop offset="0.385" stop-color="#F2F2F2" stop-opacity="0.95"/>
<stop offset="0.475" stop-color="#F2F2F2"/>
</linearGradient>
<linearGradient id="paint4_linear_517_1429" x1="639.5" y1="452" x2="639.5" y2="924" gradientUnits="userSpaceOnUse">
<stop offset="0.125" stop-color="#98E176"/>
<stop offset="0.315" stop-color="#F2F2F2" stop-opacity="0.9"/>
<stop offset="0.385" stop-color="#F2F2F2" stop-opacity="0.95"/>
<stop offset="0.475" stop-color="#F2F2F2"/>
</linearGradient>
<linearGradient id="paint5_linear_517_1429" x1="778.5" y1="417" x2="778.5" y2="914" gradientUnits="userSpaceOnUse">
<stop offset="0.125" stop-color="#98E176"/>
<stop offset="0.315" stop-color="#F2F2F2" stop-opacity="0.9"/>
<stop offset="0.385" stop-color="#F2F2F2" stop-opacity="0.95"/>
<stop offset="0.475" stop-color="#F2F2F2"/>
</linearGradient>
<linearGradient id="paint6_linear_517_1429" x1="1062.5" y1="202" x2="1062.5" y2="924" gradientUnits="userSpaceOnUse">
<stop offset="0.125" stop-color="#98E176"/>
<stop offset="0.315" stop-color="#F2F2F2" stop-opacity="0.9"/>
<stop offset="0.385" stop-color="#F2F2F2" stop-opacity="0.95"/>
<stop offset="0.475" stop-color="#F2F2F2"/>
</linearGradient>
<linearGradient id="paint7_linear_517_1429" x1="1203.5" y1="124" x2="1203.5" y2="944" gradientUnits="userSpaceOnUse">
<stop offset="0.125" stop-color="#98E176"/>
<stop offset="0.315" stop-color="#F2F2F2" stop-opacity="0.9"/>
<stop offset="0.385" stop-color="#F2F2F2" stop-opacity="0.95"/>
<stop offset="0.475" stop-color="#F2F2F2"/>
</linearGradient>
<linearGradient id="paint8_linear_517_1429" x1="1344.5" y1="313" x2="1344.5" y2="944" gradientUnits="userSpaceOnUse">
<stop offset="0.125" stop-color="#98E176"/>
<stop offset="0.315" stop-color="#F2F2F2" stop-opacity="0.9"/>
<stop offset="0.385" stop-color="#F2F2F2" stop-opacity="0.95"/>
<stop offset="0.475" stop-color="#F2F2F2"/>
</linearGradient>
<linearGradient id="paint9_linear_517_1429" x1="1485.5" y1="73" x2="1485.5" y2="944" gradientUnits="userSpaceOnUse">
<stop offset="0.125" stop-color="#98E176"/>
<stop offset="0.315" stop-color="#F2F2F2" stop-opacity="0.9"/>
<stop offset="0.385" stop-color="#F2F2F2" stop-opacity="0.95"/>
<stop offset="0.475" stop-color="#F2F2F2"/>
</linearGradient>
<linearGradient id="paint10_linear_517_1429" x1="1627.5" y1="153" x2="1627.5" y2="944" gradientUnits="userSpaceOnUse">
<stop offset="0.125" stop-color="#98E176"/>
<stop offset="0.315" stop-color="#F2F2F2" stop-opacity="0.9"/>
<stop offset="0.385" stop-color="#F2F2F2" stop-opacity="0.95"/>
<stop offset="0.475" stop-color="#F2F2F2"/>
</linearGradient>
<linearGradient id="paint11_linear_517_1429" x1="1768.5" y1="322" x2="1768.5" y2="944" gradientUnits="userSpaceOnUse">
<stop offset="0.125" stop-color="#98E176"/>
<stop offset="0.315" stop-color="#F2F2F2" stop-opacity="0.9"/>
<stop offset="0.385" stop-color="#F2F2F2" stop-opacity="0.95"/>
<stop offset="0.475" stop-color="#F2F2F2"/>
</linearGradient>
<linearGradient id="paint12_linear_517_1429" x1="1905.5" y1="250" x2="1905.5" y2="944" gradientUnits="userSpaceOnUse">
<stop offset="0.125" stop-color="#98E176"/>
<stop offset="0.315" stop-color="#F2F2F2" stop-opacity="0.9"/>
<stop offset="0.385" stop-color="#F2F2F2" stop-opacity="0.95"/>
<stop offset="0.475" stop-color="#F2F2F2"/>
</linearGradient>
<linearGradient id="paint13_linear_517_1429" x1="919.5" y1="264" x2="919.5" y2="924" gradientUnits="userSpaceOnUse">
<stop offset="0.125" stop-color="#98E176"/>
<stop offset="0.315" stop-color="#F2F2F2" stop-opacity="0.9"/>
<stop offset="0.385" stop-color="#F2F2F2" stop-opacity="0.95"/>
<stop offset="0.475" stop-color="#F2F2F2"/>
</linearGradient>
</defs>
</svg>
