<svg width="1984" height="743" viewBox="0 0 1984 743" fill="none" xmlns="http://www.w3.org/2000/svg">
<path d="M145.5 563.184C145.5 523.143 113.041 490.684 73 490.684C32.9594 490.684 0.5 523.143 0.5 563.184H145.5ZM0.5 668.589L0.5 741.089H145.5L145.5 668.589H0.5ZM0.5 563.184L0.5 668.589H145.5V563.184H0.5Z" fill="url(#paint0_linear_674_161)"/>
<path d="M286.5 394C286.5 353.959 254.041 321.5 214 321.5C173.959 321.5 141.5 353.959 141.5 394L286.5 394ZM141.5 669L141.5 741.5L286.5 741.5L286.5 669L141.5 669ZM141.5 394L141.5 669L286.5 669L286.5 394L141.5 394Z" fill="url(#paint1_linear_674_161)"/>
<path d="M427.5 293C427.5 252.959 395.041 220.5 355 220.5C314.959 220.5 282.5 252.959 282.5 293L427.5 293ZM282.5 669L282.5 741.5L427.5 741.5L427.5 669L282.5 669ZM282.5 293L282.5 669L427.5 669L427.5 293L282.5 293Z" fill="url(#paint2_linear_674_161)"/>
<path d="M572.32 449.954C572.32 409.913 539.861 377.454 499.82 377.454C459.78 377.454 427.32 409.913 427.32 449.954H572.32ZM427.32 668.635V741.135H572.32V668.635H427.32ZM427.32 449.954L427.32 668.635H572.32V449.954H427.32Z" fill="url(#paint3_linear_674_161)"/>
<path d="M712.486 560.421C713.271 520.388 681.454 487.299 641.421 486.514C601.388 485.729 568.299 517.546 567.514 557.579L712.486 560.421ZM565.365 667.168L563.944 739.654L708.917 742.496L710.338 670.01L565.365 667.168ZM567.514 557.579L565.365 667.168L710.338 670.01L712.486 560.421L567.514 557.579Z" fill="url(#paint4_linear_674_161)"/>
<path d="M851.574 524.454C851.574 484.413 819.115 451.954 779.074 451.954C739.034 451.954 706.574 484.413 706.574 524.454L851.574 524.454ZM706.574 668.588L706.574 741.088L851.574 741.088L851.574 668.588L706.574 668.588ZM706.574 524.454L706.574 668.588L851.574 668.588L851.574 524.454L706.574 524.454Z" fill="url(#paint5_linear_674_161)"/>
<path d="M1135.5 309C1135.5 268.959 1103.04 236.5 1063 236.5C1022.96 236.5 990.5 268.959 990.5 309L1135.5 309ZM990.5 669L990.5 741.5L1135.5 741.5L1135.5 669L990.5 669ZM990.5 309L990.5 669L1135.5 669L1135.5 309L990.5 309Z" fill="url(#paint6_linear_674_161)"/>
<path d="M1276.5 231C1276.5 190.959 1244.04 158.5 1204 158.5C1163.96 158.5 1131.5 190.959 1131.5 231L1276.5 231ZM1131.5 669L1131.5 741.5L1276.5 741.5L1276.5 669L1131.5 669ZM1131.5 231L1131.5 669L1276.5 669L1276.5 231L1131.5 231Z" fill="url(#paint7_linear_674_161)"/>
<path d="M1417.5 420C1417.5 379.959 1385.04 347.5 1345 347.5C1304.96 347.5 1272.5 379.959 1272.5 420L1417.5 420ZM1272.5 669L1272.5 741.5L1417.5 741.5L1417.5 669L1272.5 669ZM1272.5 420L1272.5 669L1417.5 669L1417.5 420L1272.5 420Z" fill="url(#paint8_linear_674_161)"/>
<path d="M1558.5 73C1558.5 32.9594 1526.04 0.499998 1486 0.5C1445.96 0.500002 1413.5 32.9594 1413.5 73L1558.5 73ZM1413.5 669L1413.5 741.5L1558.5 741.5L1558.5 669L1413.5 669ZM1413.5 73L1413.5 669L1558.5 669L1558.5 73L1413.5 73Z" fill="url(#paint9_linear_674_161)"/>
<path d="M1700.5 260C1700.5 219.959 1668.04 187.5 1628 187.5C1587.96 187.5 1555.5 219.959 1555.5 260L1700.5 260ZM1555.5 669L1555.5 741.5L1700.5 741.5L1700.5 669L1555.5 669ZM1555.5 260L1555.5 669L1700.5 669L1700.5 260L1555.5 260Z" fill="url(#paint10_linear_674_161)"/>
<path d="M1841.5 429C1841.5 388.959 1809.04 356.5 1769 356.5C1728.96 356.5 1696.5 388.959 1696.5 429L1841.5 429ZM1696.5 669L1696.5 741.5L1841.5 741.5L1841.5 669L1696.5 669ZM1696.5 429L1696.5 669L1841.5 669L1841.5 429L1696.5 429Z" fill="url(#paint11_linear_674_161)"/>
<path d="M1978.49 356.071C1977.98 316.033 1945.11 283.993 1905.07 284.506C1865.03 285.019 1832.99 317.892 1833.51 357.929L1978.49 356.071ZM1837.51 669.929L1838.44 742.423L1983.42 740.565L1982.49 668.071L1837.51 669.929ZM1833.51 357.929L1837.51 669.929L1982.49 668.071L1978.49 356.071L1833.51 357.929Z" fill="url(#paint12_linear_674_161)"/>
<path d="M992.5 371C992.5 330.959 960.041 298.5 920 298.5C879.959 298.5 847.5 330.959 847.5 371L992.5 371ZM847.5 669L847.5 741.5L992.5 741.5L992.5 669L847.5 669ZM847.5 371L847.5 669L992.5 669L992.5 371L847.5 371Z" fill="url(#paint13_linear_674_161)"/>
<defs>
<linearGradient id="paint0_linear_674_161" x1="72.5" y1="563.184" x2="72.5" y2="668.589" gradientUnits="userSpaceOnUse">
<stop stop-color="#98E176"/>
<stop offset="0.38" stop-color="#89C96C" stop-opacity="0.9"/>
<stop offset="0.86" stop-color="#0D0D0D" stop-opacity="0.9"/>
<stop offset="0.905" stop-color="#0D0D0D" stop-opacity="0.95"/>
<stop offset="1" stop-color="#0D0D0D"/>
</linearGradient>
<linearGradient id="paint1_linear_674_161" x1="213.5" y1="394" x2="213.5" y2="669" gradientUnits="userSpaceOnUse">
<stop stop-color="#98E176"/>
<stop offset="0.38" stop-color="#89C96C" stop-opacity="0.9"/>
<stop offset="0.86" stop-color="#0D0D0D" stop-opacity="0.9"/>
<stop offset="0.905" stop-color="#0D0D0D" stop-opacity="0.95"/>
<stop offset="1" stop-color="#0D0D0D"/>
</linearGradient>
<linearGradient id="paint2_linear_674_161" x1="354.5" y1="293" x2="354.5" y2="669" gradientUnits="userSpaceOnUse">
<stop stop-color="#98E176"/>
<stop offset="0.38" stop-color="#89C96C" stop-opacity="0.9"/>
<stop offset="0.86" stop-color="#0D0D0D" stop-opacity="0.9"/>
<stop offset="0.905" stop-color="#0D0D0D" stop-opacity="0.95"/>
<stop offset="1" stop-color="#0D0D0D"/>
</linearGradient>
<linearGradient id="paint3_linear_674_161" x1="499.32" y1="449.954" x2="499.32" y2="668.635" gradientUnits="userSpaceOnUse">
<stop stop-color="#98E176"/>
<stop offset="0.38" stop-color="#89C96C" stop-opacity="0.9"/>
<stop offset="0.86" stop-color="#0D0D0D" stop-opacity="0.9"/>
<stop offset="0.905" stop-color="#0D0D0D" stop-opacity="0.95"/>
<stop offset="1" stop-color="#0D0D0D"/>
</linearGradient>
<linearGradient id="paint4_linear_674_161" x1="639.5" y1="558.99" x2="637.352" y2="668.579" gradientUnits="userSpaceOnUse">
<stop stop-color="#98E176"/>
<stop offset="0.38" stop-color="#89C96C" stop-opacity="0.9"/>
<stop offset="0.86" stop-color="#0D0D0D" stop-opacity="0.9"/>
<stop offset="0.905" stop-color="#0D0D0D" stop-opacity="0.95"/>
<stop offset="1" stop-color="#0D0D0D"/>
</linearGradient>
<linearGradient id="paint5_linear_674_161" x1="778.574" y1="524.454" x2="778.574" y2="668.588" gradientUnits="userSpaceOnUse">
<stop stop-color="#98E176"/>
<stop offset="0.38" stop-color="#89C96C" stop-opacity="0.9"/>
<stop offset="0.86" stop-color="#0D0D0D" stop-opacity="0.9"/>
<stop offset="0.905" stop-color="#0D0D0D" stop-opacity="0.95"/>
<stop offset="1" stop-color="#0D0D0D"/>
</linearGradient>
<linearGradient id="paint6_linear_674_161" x1="1062.5" y1="309" x2="1062.5" y2="669" gradientUnits="userSpaceOnUse">
<stop stop-color="#98E176"/>
<stop offset="0.38" stop-color="#89C96C" stop-opacity="0.9"/>
<stop offset="0.86" stop-color="#0D0D0D" stop-opacity="0.9"/>
<stop offset="0.905" stop-color="#0D0D0D" stop-opacity="0.95"/>
<stop offset="1" stop-color="#0D0D0D"/>
</linearGradient>
<linearGradient id="paint7_linear_674_161" x1="1203.5" y1="231" x2="1203.5" y2="669" gradientUnits="userSpaceOnUse">
<stop stop-color="#98E176"/>
<stop offset="0.38" stop-color="#89C96C" stop-opacity="0.9"/>
<stop offset="0.86" stop-color="#0D0D0D" stop-opacity="0.9"/>
<stop offset="0.905" stop-color="#0D0D0D" stop-opacity="0.95"/>
<stop offset="1" stop-color="#0D0D0D"/>
</linearGradient>
<linearGradient id="paint8_linear_674_161" x1="1344.5" y1="420" x2="1344.5" y2="669" gradientUnits="userSpaceOnUse">
<stop stop-color="#98E176"/>
<stop offset="0.38" stop-color="#89C96C" stop-opacity="0.9"/>
<stop offset="0.86" stop-color="#0D0D0D" stop-opacity="0.9"/>
<stop offset="0.905" stop-color="#0D0D0D" stop-opacity="0.95"/>
<stop offset="1" stop-color="#0D0D0D"/>
</linearGradient>
<linearGradient id="paint9_linear_674_161" x1="1485.5" y1="73" x2="1485.5" y2="669" gradientUnits="userSpaceOnUse">
<stop stop-color="#98E176"/>
<stop offset="0.38" stop-color="#89C96C" stop-opacity="0.9"/>
<stop offset="0.86" stop-color="#0D0D0D" stop-opacity="0.9"/>
<stop offset="0.905" stop-color="#0D0D0D" stop-opacity="0.95"/>
<stop offset="1" stop-color="#0D0D0D"/>
</linearGradient>
<linearGradient id="paint10_linear_674_161" x1="1627.5" y1="260" x2="1627.5" y2="669" gradientUnits="userSpaceOnUse">
<stop stop-color="#98E176"/>
<stop offset="0.38" stop-color="#89C96C" stop-opacity="0.9"/>
<stop offset="0.86" stop-color="#0D0D0D" stop-opacity="0.9"/>
<stop offset="0.905" stop-color="#0D0D0D" stop-opacity="0.95"/>
<stop offset="1" stop-color="#0D0D0D"/>
</linearGradient>
<linearGradient id="paint11_linear_674_161" x1="1768.5" y1="429" x2="1768.5" y2="669" gradientUnits="userSpaceOnUse">
<stop stop-color="#98E176"/>
<stop offset="0.38" stop-color="#89C96C" stop-opacity="0.9"/>
<stop offset="0.86" stop-color="#0D0D0D" stop-opacity="0.9"/>
<stop offset="0.905" stop-color="#0D0D0D" stop-opacity="0.95"/>
<stop offset="1" stop-color="#0D0D0D"/>
</linearGradient>
<linearGradient id="paint12_linear_674_161" x1="1905.5" y1="357.006" x2="1909.5" y2="669.006" gradientUnits="userSpaceOnUse">
<stop stop-color="#98E176"/>
<stop offset="0.38" stop-color="#89C96C" stop-opacity="0.9"/>
<stop offset="0.86" stop-color="#0D0D0D" stop-opacity="0.9"/>
<stop offset="0.905" stop-color="#0D0D0D" stop-opacity="0.95"/>
<stop offset="1" stop-color="#0D0D0D"/>
</linearGradient>
<linearGradient id="paint13_linear_674_161" x1="919.5" y1="371" x2="919.5" y2="669" gradientUnits="userSpaceOnUse">
<stop stop-color="#98E176"/>
<stop offset="0.38" stop-color="#89C96C" stop-opacity="0.9"/>
<stop offset="0.86" stop-color="#0D0D0D" stop-opacity="0.9"/>
<stop offset="0.905" stop-color="#0D0D0D" stop-opacity="0.95"/>
<stop offset="1" stop-color="#0D0D0D"/>
</linearGradient>
</defs>
</svg>
