<svg width="1922" height="888" viewBox="0 0 1922 888" fill="none" xmlns="http://www.w3.org/2000/svg">
<g filter="url(#filter0_d_517_1458)">
<path d="M1846.25 879L1846.25 297.573" stroke="#182EC0" stroke-width="10" stroke-linecap="round"/>
<path d="M1705.04 879L1705.04 249.59" stroke="#182EC0" stroke-width="10" stroke-linecap="round"/>
<path d="M1564.25 879L1564.25 328" stroke="#182EC0" stroke-width="10" stroke-linecap="round"/>
<path d="M1422.61 879L1422.61 420.113" stroke="#182EC0" stroke-width="10" stroke-linecap="round"/>
<path d="M1281.25 879L1281.25 298.706" stroke="#182EC0" stroke-width="10" stroke-linecap="round"/>
<path d="M1140 879L1140 84" stroke="#182EC0" stroke-width="10" stroke-linecap="round"/>
<path d="M856 879L856 36" stroke="#182EC0" stroke-width="10" stroke-linecap="round"/>
<path d="M715.25 879L713.25 324" stroke="#182EC0" stroke-width="10" stroke-linecap="round"/>
<path d="M574 879L574 370" stroke="#182EC0" stroke-width="10" stroke-linecap="round"/>
<path d="M433.25 879L433.25 249.97" stroke="#182EC0" stroke-width="10" stroke-linecap="round"/>
<path d="M291.25 879L291.25 324" stroke="#182EC0" stroke-width="10" stroke-linecap="round"/>
<path d="M150 879L150 215" stroke="#182EC0" stroke-width="10" stroke-linecap="round"/>
<path d="M9 879L8.99998 428" stroke="#182EC0" stroke-width="10" stroke-linecap="round"/>
<path d="M999 879L999 130" stroke="#182EC0" stroke-width="10" stroke-linecap="round"/>
<path d="M429.156 252.826C427.901 245.807 430.462 238.757 435.683 233.026C440.905 227.295 448.771 222.907 458.05 221.249C467.33 219.59 476.229 220.981 483.113 224.548C489.996 228.115 494.84 233.841 496.095 240.86C497.349 247.879 494.789 254.929 489.567 260.66C484.346 266.391 476.48 270.779 467.2 272.437C457.921 274.096 449.022 272.705 442.138 269.138C435.255 265.571 430.41 259.845 429.156 252.826Z" fill="#182EC0" stroke="#182EC0"/>
<path d="M570.156 366.14C568.901 359.121 571.462 352.071 576.683 346.34C581.905 340.609 589.771 336.221 599.05 334.563C608.33 332.904 617.229 334.295 624.113 337.862C630.996 341.429 635.84 347.155 637.095 354.174C638.349 361.193 635.789 368.243 630.567 373.974C625.346 379.705 617.48 384.093 608.2 385.751C598.921 387.41 590.022 386.019 583.138 382.452C576.255 378.885 571.41 373.159 570.156 366.14Z" fill="#182EC0" stroke="#182EC0"/>
<path d="M709.156 323.826C707.901 316.807 710.462 309.757 715.683 304.026C720.905 298.295 728.771 293.907 738.05 292.249C747.33 290.59 756.229 291.981 763.113 295.548C769.996 299.115 774.84 304.841 776.095 311.86C777.349 318.879 774.789 325.929 769.567 331.66C764.346 337.391 756.48 341.779 747.2 343.437C737.921 345.096 729.022 343.705 722.138 340.138C715.255 336.571 710.41 330.845 709.156 323.826Z" fill="#182EC0" stroke="#182EC0"/>
<path d="M1136.16 90.1397C1134.9 83.1207 1137.46 76.071 1142.68 70.3404C1147.9 64.6093 1155.77 60.2213 1165.05 58.5627C1174.33 56.904 1183.23 58.2951 1190.11 61.8624C1197 65.4293 1201.84 71.1553 1203.09 78.1743C1204.35 85.1933 1201.79 92.243 1196.57 97.9736C1191.35 103.705 1183.48 108.093 1174.2 109.751C1164.92 111.41 1156.02 110.019 1149.14 106.452C1142.25 102.885 1137.41 97.1586 1136.16 90.1397Z" fill="#182EC0" stroke="#182EC0"/>
<path d="M995.156 129.14C993.901 122.121 996.462 115.071 1001.68 109.34C1006.9 103.609 1014.77 99.2213 1024.05 97.5627C1033.33 95.904 1042.23 97.2951 1049.11 100.862C1056 104.429 1060.84 110.155 1062.09 117.174C1063.35 124.193 1060.79 131.243 1055.57 136.974C1050.35 142.705 1042.48 147.093 1033.2 148.751C1023.92 150.41 1015.02 149.019 1008.14 145.452C1001.25 141.885 996.41 136.159 995.156 129.14Z" fill="#182EC0" stroke="#182EC0"/>
<path d="M852.156 38.1397C850.901 31.1207 853.462 24.071 858.683 18.3404C863.905 12.6093 871.771 8.22133 881.05 6.56266C890.33 4.90399 899.229 6.29513 906.113 9.86236C912.996 13.4293 917.84 19.1553 919.095 26.1743C920.349 33.1933 917.789 40.243 912.567 45.9736C907.346 51.7047 899.48 56.0926 890.2 57.7513C880.921 59.41 872.022 58.0188 865.138 54.4516C858.255 50.8847 853.41 45.1586 852.156 38.1397Z" fill="#182EC0" stroke="#182EC0"/>
<path d="M1418.16 417.826C1416.9 410.807 1419.46 403.757 1424.68 398.026C1429.9 392.295 1437.77 387.907 1447.05 386.249C1456.33 384.59 1465.23 385.981 1472.11 389.548C1479 393.115 1483.84 398.841 1485.09 405.86C1486.35 412.879 1483.79 419.929 1478.57 425.66C1473.35 431.391 1465.48 435.779 1456.2 437.437C1446.92 439.096 1438.02 437.705 1431.14 434.138C1424.25 430.571 1419.41 424.845 1418.16 417.826Z" fill="#182EC0" stroke="#182EC0"/>
<path d="M1277.16 300.826C1275.9 293.807 1278.46 286.757 1283.68 281.026C1288.9 275.295 1296.77 270.907 1306.05 269.249C1315.33 267.59 1324.23 268.981 1331.11 272.548C1338 276.115 1342.84 281.841 1344.09 288.86C1345.35 295.879 1342.79 302.929 1337.57 308.66C1332.35 314.391 1324.48 318.779 1315.2 320.437C1305.92 322.096 1297.02 320.705 1290.14 317.138C1283.25 313.571 1278.41 307.845 1277.16 300.826Z" fill="#182EC0" stroke="#182EC0"/>
<path d="M1701.16 249.826C1699.9 242.807 1702.46 235.757 1707.68 230.026C1712.9 224.295 1720.77 219.907 1730.05 218.249C1739.33 216.59 1748.23 217.981 1755.11 221.548C1762 225.115 1766.84 230.841 1768.09 237.86C1769.35 244.879 1766.79 251.929 1761.57 257.66C1756.35 263.391 1748.48 267.779 1739.2 269.437C1729.92 271.096 1721.02 269.705 1714.14 266.138C1707.25 262.571 1702.41 256.845 1701.16 249.826Z" fill="#182EC0" stroke="#182EC0"/>
<path d="M1842.16 301.826C1840.9 294.807 1843.46 287.757 1848.68 282.026C1853.9 276.295 1861.77 271.907 1871.05 270.249C1880.33 268.59 1889.23 269.981 1896.11 273.548C1903 277.115 1907.84 282.841 1909.09 289.86C1910.35 296.879 1907.79 303.929 1902.57 309.66C1897.35 315.391 1889.48 319.779 1880.2 321.437C1870.92 323.096 1862.02 321.705 1855.14 318.138C1848.25 314.571 1843.41 308.845 1842.16 301.826Z" fill="#182EC0" stroke="#182EC0"/>
<path d="M5.15583 434.14C3.90119 427.121 6.46197 420.071 11.6832 414.34C16.9048 408.609 24.7711 404.221 34.0503 402.563C43.3296 400.904 52.2289 402.295 59.1126 405.862C65.9957 409.429 70.8402 415.155 72.0948 422.174C73.3495 429.193 70.7887 436.243 65.5675 441.974C60.3459 447.705 52.4796 452.093 43.2003 453.751C33.921 455.41 25.0217 454.019 18.1381 450.452C11.2549 446.885 6.41047 441.159 5.15583 434.14Z" fill="#182EC0" stroke="#182EC0"/>
<path d="M146.156 214.14C144.901 207.121 147.462 200.071 152.683 194.34C157.905 188.609 165.771 184.221 175.05 182.563C184.33 180.904 193.229 182.295 200.113 185.862C206.996 189.429 211.84 195.155 213.095 202.174C214.349 209.193 211.789 216.243 206.567 221.974C201.346 227.705 193.48 232.093 184.2 233.751C174.921 235.41 166.022 234.019 159.138 230.452C152.255 226.885 147.41 221.159 146.156 214.14Z" fill="#182EC0" stroke="#182EC0"/>
<path d="M1560.16 321.826C1558.9 314.807 1561.46 307.757 1566.68 302.026C1571.9 296.295 1579.77 291.907 1589.05 290.249C1598.33 288.59 1607.23 289.981 1614.11 293.548C1621 297.115 1625.84 302.841 1627.09 309.86C1628.35 316.879 1625.79 323.929 1620.57 329.66C1615.35 335.391 1607.48 339.779 1598.2 341.437C1588.92 343.096 1580.02 341.705 1573.14 338.138C1566.25 334.571 1561.41 328.845 1560.16 321.826Z" fill="#182EC0" stroke="#182EC0"/>
<path d="M287.156 323.826C285.901 316.807 288.462 309.757 293.683 304.026C298.905 298.295 306.771 293.907 316.05 292.249C325.33 290.59 334.229 291.981 341.113 295.548C347.996 299.115 352.84 304.841 354.095 311.86C355.349 318.879 352.789 325.929 347.567 331.66C342.346 337.391 334.48 341.779 325.2 343.437C315.921 345.096 307.022 343.705 300.138 340.138C293.255 336.571 288.41 330.845 287.156 323.826Z" fill="#182EC0" stroke="#182EC0"/>
</g>
<defs>
<filter id="filter0_d_517_1458" x="4" y="1.36768" width="1917.91" height="886.632" filterUnits="userSpaceOnUse" color-interpolation-filters="sRGB">
<feFlood flood-opacity="0" result="BackgroundImageFix"/>
<feColorMatrix in="SourceAlpha" type="matrix" values="0 0 0 0 0 0 0 0 0 0 0 0 0 0 0 0 0 0 127 0" result="hardAlpha"/>
<feOffset dx="8"/>
<feGaussianBlur stdDeviation="2"/>
<feComposite in2="hardAlpha" operator="out"/>
<feColorMatrix type="matrix" values="0 0 0 0 0.0431373 0 0 0 0 0.0862745 0 0 0 0 0.352941 0 0 0 1 0"/>
<feBlend mode="normal" in2="BackgroundImageFix" result="effect1_dropShadow_517_1458"/>
<feBlend mode="normal" in="SourceGraphic" in2="effect1_dropShadow_517_1458" result="shape"/>
</filter>
</defs>
</svg>
