<svg width="2003" height="649" viewBox="0 0 2003 649" fill="none" xmlns="http://www.w3.org/2000/svg">
<g filter="url(#filter0_d_517_1429)">
<path d="M150 468.184C150 426.763 116.421 393.184 75 393.184C33.5786 393.184 0 426.763 0 468.184H150ZM0 573.589L0 648.589H150L150 573.589H0ZM0 468.184L0 573.589H150V468.184H0Z" fill="#98E176"/>
<path d="M291.215 351.013C291.215 309.592 257.636 276.013 216.215 276.013C174.793 276.013 141.215 309.592 141.215 351.013L291.215 351.013ZM141.215 573.589L141.215 648.589L291.215 648.589L291.215 573.589L141.215 573.589ZM141.215 351.013L141.215 573.589L291.215 573.589L291.215 351.013L141.215 351.013Z" fill="#98E176"/>
<path d="M432.43 240.706C432.43 199.284 398.851 165.706 357.43 165.706C316.008 165.706 282.43 199.284 282.43 240.706L432.43 240.706ZM282.43 573.588L282.43 648.588L432.43 648.588L432.43 573.588L282.43 573.588ZM282.43 240.706L282.43 573.588L432.43 573.588L432.43 240.706L282.43 240.706Z" fill="#98E176"/>
<path d="M573.641 411.314C573.641 369.893 540.062 336.314 498.641 336.314C457.219 336.314 423.641 369.893 423.641 411.314L573.641 411.314ZM423.641 573.589L423.641 648.589L573.641 648.589L573.641 573.589L423.641 573.589ZM423.641 411.314L423.641 573.589L573.641 573.589L573.641 411.314L423.641 411.314Z" fill="#98E176"/>
<path d="M714.852 496.128C714.852 454.707 681.273 421.128 639.852 421.128C598.43 421.128 564.852 454.707 564.852 496.128L714.852 496.128ZM564.852 573.589L564.852 648.589L714.852 648.589L714.852 573.589L564.852 573.589ZM564.852 496.128L564.852 573.589L714.852 573.589L714.852 496.128L564.852 496.128Z" fill="#98E176"/>
<path d="M856.074 429.454C856.074 388.032 822.496 354.454 781.074 354.454C739.653 354.454 706.074 388.032 706.074 429.454L856.074 429.454ZM706.074 573.588L706.074 648.588L856.074 648.588L856.074 573.588L706.074 573.588ZM706.074 429.454L706.074 573.588L856.074 573.588L856.074 429.454L706.074 429.454Z" fill="#98E176"/>
<path d="M1139.71 75C1139.71 33.5786 1106.13 -8.95601e-07 1064.71 0C1023.29 8.95601e-07 989.711 33.5786 989.711 75L1139.71 75ZM989.711 573.588L989.711 648.588L1139.71 648.588L1139.71 573.588L989.711 573.588ZM989.711 75L989.711 573.588L1139.71 573.588L1139.71 75L989.711 75Z" fill="#98E176"/>
<path d="M1280.93 185.797C1280.93 144.376 1247.35 110.797 1205.93 110.797C1164.5 110.797 1130.93 144.376 1130.93 185.797L1280.93 185.797ZM1130.93 573.588L1130.93 648.588L1280.93 648.588L1280.93 573.588L1130.93 573.588ZM1130.93 185.797L1130.93 573.588L1280.93 573.588L1280.93 185.797L1130.93 185.797Z" fill="#98E176"/>
<path d="M1422.15 420.629C1422.15 379.208 1388.57 345.629 1347.15 345.629C1305.73 345.629 1272.15 379.208 1272.15 420.629L1422.15 420.629ZM1272.15 573.588L1272.15 648.588L1422.15 648.588L1422.15 573.588L1272.15 573.588ZM1272.15 420.629L1272.15 573.588L1422.15 573.588L1422.15 420.629L1272.15 420.629Z" fill="#98E176"/>
<path d="M1563.36 281.397C1563.36 239.976 1529.78 206.397 1488.36 206.397C1446.94 206.397 1413.36 239.976 1413.36 281.397L1563.36 281.397ZM1413.36 573.589L1413.36 648.589L1563.36 648.589L1563.36 573.589L1413.36 573.589ZM1413.36 281.397L1413.36 573.589L1563.36 573.589L1563.36 281.397L1413.36 281.397Z" fill="#98E176"/>
<path d="M1704.57 363.27C1704.57 321.848 1670.99 288.27 1629.57 288.27C1588.15 288.27 1554.57 321.848 1554.57 363.27L1704.57 363.27ZM1554.57 573.589L1554.57 648.589L1704.57 648.588L1704.57 573.589L1554.57 573.589ZM1554.57 363.27L1554.57 573.589L1704.57 573.589L1704.57 363.27L1554.57 363.27Z" fill="#98E176"/>
<path d="M1845.79 470.635C1845.79 429.214 1812.21 395.635 1770.79 395.635C1729.36 395.635 1695.79 429.214 1695.79 470.635L1845.79 470.635ZM1695.79 573.589L1695.79 648.589L1845.79 648.589L1845.79 573.589L1695.79 573.589ZM1695.79 470.635L1695.79 573.589L1845.79 573.589L1845.79 470.635L1695.79 470.635Z" fill="#98E176"/>
<path d="M1987 510.835C1987 469.414 1953.42 435.835 1912 435.835C1870.58 435.835 1837 469.414 1837 510.835L1987 510.835ZM1837 573.588L1837 648.588L1987 648.588L1987 573.588L1837 573.588ZM1837 510.835L1837 573.588L1987 573.588L1987 510.835L1837 510.835Z" fill="#98E176"/>
<path d="M997.289 232.372C997.289 190.95 963.71 157.372 922.289 157.372C880.868 157.372 847.289 190.95 847.289 232.372L997.289 232.372ZM847.289 573.588L847.289 648.588L997.289 648.588L997.289 573.588L847.289 573.588ZM847.289 232.372L847.289 573.588L997.289 573.588L997.289 232.372L847.289 232.372Z" fill="#98E176"/>
</g>
<defs>
<filter id="filter0_d_517_1429" x="0" y="0" width="2003" height="648.589" filterUnits="userSpaceOnUse" color-interpolation-filters="sRGB">
<feFlood flood-opacity="0" result="BackgroundImageFix"/>
<feColorMatrix in="SourceAlpha" type="matrix" values="0 0 0 0 0 0 0 0 0 0 0 0 0 0 0 0 0 0 127 0" result="hardAlpha"/>
<feOffset dx="16"/>
<feComposite in2="hardAlpha" operator="out"/>
<feColorMatrix type="matrix" values="0 0 0 0 0.276585 0 0 0 0 0.359945 0 0 0 0 0.240859 0 0 0 1 0"/>
<feBlend mode="normal" in2="BackgroundImageFix" result="effect1_dropShadow_517_1429"/>
<feBlend mode="normal" in="SourceGraphic" in2="effect1_dropShadow_517_1429" result="shape"/>
</filter>
</defs>
</svg>
