<svg width="1967" height="1283" viewBox="0 0 1967 1283" fill="none" xmlns="http://www.w3.org/2000/svg">
<g filter="url(#filter0_d_517_1368)">
<path d="M55 483.927L55 1224" stroke="#D0FFBB" stroke-width="110" stroke-linecap="round"/>
<path d="M196 358.058L196 1224" stroke="#D0FFBB" stroke-width="110" stroke-linecap="round"/>
<path d="M337 237.867L337 1224" stroke="#D0FFBB" stroke-width="110" stroke-linecap="round"/>
<path d="M479 422.412L479 1224" stroke="#D0FFBB" stroke-width="110" stroke-linecap="round"/>
<path d="M620 514.211L620 1224" stroke="#D0FFBB" stroke-width="110" stroke-linecap="round"/>
<path d="M761 442.286L761 1224" stroke="#D0FFBB" stroke-width="110" stroke-linecap="round"/>
<path d="M1045 59L1045 1224" stroke="#D0FFBB" stroke-width="110" stroke-linecap="round"/>
<path d="M1186 179.191L1186 1224" stroke="#D0FFBB" stroke-width="110" stroke-linecap="round"/>
<path d="M1327 432.822L1327 1224" stroke="#D0FFBB" stroke-width="110" stroke-linecap="round"/>
<path d="M1468 282.347L1468 1224" stroke="#D0FFBB" stroke-width="110" stroke-linecap="round"/>
<path d="M1610 371.307L1610 1224" stroke="#D0FFBB" stroke-width="110" stroke-linecap="round"/>
<path d="M1751 486.766L1751 1224" stroke="#D0FFBB" stroke-width="110" stroke-linecap="round"/>
<path d="M1892 530.3L1892 1224" stroke="#D0FFBB" stroke-width="110" stroke-linecap="round"/>
<path d="M902 229.349L902 1224" stroke="#D0FFBB" stroke-width="110" stroke-linecap="round"/>
</g>
<defs>
<filter id="filter0_d_517_1368" x="0" y="0" width="1967" height="1283" filterUnits="userSpaceOnUse" color-interpolation-filters="sRGB">
<feFlood flood-opacity="0" result="BackgroundImageFix"/>
<feColorMatrix in="SourceAlpha" type="matrix" values="0 0 0 0 0 0 0 0 0 0 0 0 0 0 0 0 0 0 127 0" result="hardAlpha"/>
<feOffset dx="16"/>
<feGaussianBlur stdDeviation="2"/>
<feComposite in2="hardAlpha" operator="out"/>
<feColorMatrix type="matrix" values="0 0 0 0 0.48906 0 0 0 0 0.617155 0 0 0 0 0.429588 0 0 0 1 0"/>
<feBlend mode="normal" in2="BackgroundImageFix" result="effect1_dropShadow_517_1368"/>
<feBlend mode="normal" in="SourceGraphic" in2="effect1_dropShadow_517_1368" result="shape"/>
</filter>
</defs>
</svg>
