<svg width="1987" height="1303" viewBox="0 0 1987 1303" fill="none" xmlns="http://www.w3.org/2000/svg">
<g filter="url(#filter0_d_517_1368)">
<path d="M65 493.927L65 1234" stroke="#D0FFBB" stroke-width="130" stroke-linecap="round"/>
<path d="M206 368.058L206 1234" stroke="#D0FFBB" stroke-width="130" stroke-linecap="round"/>
<path d="M347 247.867L347 1234" stroke="#D0FFBB" stroke-width="130" stroke-linecap="round"/>
<path d="M489 432.412L489 1234" stroke="#D0FFBB" stroke-width="130" stroke-linecap="round"/>
<path d="M630 524.211L630 1234" stroke="#D0FFBB" stroke-width="130" stroke-linecap="round"/>
<path d="M771 590L771 1234" stroke="#D0FFBB" stroke-width="130" stroke-linecap="round"/>
<path d="M1055 69L1055 1234" stroke="#D0FFBB" stroke-width="130" stroke-linecap="round"/>
<path d="M1196 189.191L1196 1234" stroke="#D0FFBB" stroke-width="130" stroke-linecap="round"/>
<path d="M1337 442.822L1337 1234" stroke="#D0FFBB" stroke-width="130" stroke-linecap="round"/>
<path d="M1478 292.347L1478 1234" stroke="#D0FFBB" stroke-width="130" stroke-linecap="round"/>
<path d="M1620 381.307L1620 1234" stroke="#D0FFBB" stroke-width="130" stroke-linecap="round"/>
<path d="M1761 496.766L1761 1234" stroke="#D0FFBB" stroke-width="130" stroke-linecap="round"/>
<path d="M1902 540.3L1902 1234" stroke="#D0FFBB" stroke-width="130" stroke-linecap="round"/>
<path d="M912 239.349L912 1234" stroke="#D0FFBB" stroke-width="130" stroke-linecap="round"/>
</g>
<defs>
<filter id="filter0_d_517_1368" x="0" y="0" width="1987" height="1303" filterUnits="userSpaceOnUse" color-interpolation-filters="sRGB">
<feFlood flood-opacity="0" result="BackgroundImageFix"/>
<feColorMatrix in="SourceAlpha" type="matrix" values="0 0 0 0 0 0 0 0 0 0 0 0 0 0 0 0 0 0 127 0" result="hardAlpha"/>
<feOffset dx="16"/>
<feGaussianBlur stdDeviation="2"/>
<feComposite in2="hardAlpha" operator="out"/>
<feColorMatrix type="matrix" values="0 0 0 0 0.48906 0 0 0 0 0.617155 0 0 0 0 0.429588 0 0 0 1 0"/>
<feBlend mode="normal" in2="BackgroundImageFix" result="effect1_dropShadow_517_1368"/>
<feBlend mode="normal" in="SourceGraphic" in2="effect1_dropShadow_517_1368" result="shape"/>
</filter>
</defs>
</svg>
