<svg width="2003" height="893" viewBox="0 0 2003 893" fill="none" xmlns="http://www.w3.org/2000/svg">
<g filter="url(#filter0_d_517_1399)">
<path d="M1912 444V758" stroke="#AAFE83" stroke-width="150" stroke-linecap="round"/>
<path d="M1769.25 334L1769.25 751.841" stroke="#AAFE83" stroke-width="150" stroke-linecap="round"/>
<path d="M1626 231L1626 818" stroke="#AAFE83" stroke-width="150" stroke-linecap="round"/>
<path d="M1483.75 391L1483.75 695.637" stroke="#AAFE83" stroke-width="150" stroke-linecap="round"/>
<path d="M1340.99 470L1340.99 615.416" stroke="#AAFE83" stroke-width="150" stroke-linecap="round"/>
<path d="M1198.24 408L1198.24 678.584" stroke="#AAFE83" stroke-width="150" stroke-linecap="round"/>
<path d="M912 75L912 810" stroke="#AAFE83" stroke-width="150" stroke-linecap="round"/>
<path d="M769 179L769 818" stroke="#AAFE83" stroke-width="150" stroke-linecap="round"/>
<path d="M626.008 399L626.008 686.15" stroke="#AAFE83" stroke-width="150" stroke-linecap="round"/>
<path d="M483.254 269L483.254 817.531" stroke="#AAFE83" stroke-width="150" stroke-linecap="round"/>
<path d="M340.5 346L340.5 740.832" stroke="#AAFE83" stroke-width="150" stroke-linecap="round"/>
<path d="M197.75 446L197.75 639.274" stroke="#AAFE83" stroke-width="150" stroke-linecap="round"/>
<path d="M75 489L75 798" stroke="#AAFE83" stroke-width="150" stroke-linecap="round"/>
<path d="M1055 223L1055 818" stroke="#AAFE83" stroke-width="150" stroke-linecap="round"/>
</g>
<defs>
<filter id="filter0_d_517_1399" x="0" y="0" width="2003" height="893" filterUnits="userSpaceOnUse" color-interpolation-filters="sRGB">
<feFlood flood-opacity="0" result="BackgroundImageFix"/>
<feColorMatrix in="SourceAlpha" type="matrix" values="0 0 0 0 0 0 0 0 0 0 0 0 0 0 0 0 0 0 127 0" result="hardAlpha"/>
<feOffset dx="16"/>
<feComposite in2="hardAlpha" operator="out"/>
<feColorMatrix type="matrix" values="0 0 0 0 0.447159 0 0 0 0 0.663542 0 0 0 0 0.346696 0 0 0 1 0"/>
<feBlend mode="normal" in2="BackgroundImageFix" result="effect1_dropShadow_517_1399"/>
<feBlend mode="normal" in="SourceGraphic" in2="effect1_dropShadow_517_1399" result="shape"/>
</filter>
</defs>
</svg>
