<svg width="1915" height="890" viewBox="0 0 1915 890" fill="none" xmlns="http://www.w3.org/2000/svg">
<g filter="url(#filter0_b_517_1458)">
<path d="M1846.25 884.474L1846.25 299.495" stroke="#182EC0" stroke-width="10" stroke-linecap="round"/>
<path d="M1705.04 884.474L1705.04 251.219" stroke="#182EC0" stroke-width="10" stroke-linecap="round"/>
<path d="M1564.25 884.474L1564.25 330.108" stroke="#182EC0" stroke-width="10" stroke-linecap="round"/>
<path d="M1422.61 884.474L1422.61 422.784" stroke="#182EC0" stroke-width="10" stroke-linecap="round"/>
<path d="M1281.25 884.474L1281.25 300.635" stroke="#182EC0" stroke-width="10" stroke-linecap="round"/>
<path d="M1140 884.474L1140 84.6169" stroke="#182EC0" stroke-width="10" stroke-linecap="round"/>
<path d="M856 884.474L856 36.3237" stroke="#182EC0" stroke-width="10" stroke-linecap="round"/>
<path d="M715.25 884.474L713.238 326.084" stroke="#182EC0" stroke-width="10" stroke-linecap="round"/>
<path d="M574 884.474L574 372.364" stroke="#182EC0" stroke-width="10" stroke-linecap="round"/>
<path d="M433.25 884.474L433.25 251.601" stroke="#182EC0" stroke-width="10" stroke-linecap="round"/>
<path d="M291.25 884.474L291.25 326.083" stroke="#182EC0" stroke-width="10" stroke-linecap="round"/>
<path d="M150 884.474L150 216.417" stroke="#182EC0" stroke-width="10" stroke-linecap="round"/>
<path d="M9 884.474L8.99998 430.719" stroke="#182EC0" stroke-width="10" stroke-linecap="round"/>
<path d="M999 884.474L999 130.898" stroke="#182EC0" stroke-width="10" stroke-linecap="round"/>
<path d="M429.156 254.474C426.648 240.361 439.439 226.048 458.05 222.701C476.66 219.354 493.588 228.323 496.095 242.436C498.602 256.548 485.811 270.862 467.201 274.208C448.59 277.555 431.663 268.587 429.156 254.474Z" fill="#182EC0" stroke="#182EC0"/>
<path d="M570.156 368.481C567.648 354.368 580.439 340.055 599.05 336.708C617.66 333.361 634.588 342.33 637.095 356.442C639.602 370.555 626.811 384.868 608.201 388.215C589.59 391.562 572.663 382.594 570.156 368.481Z" fill="#182EC0" stroke="#182EC0"/>
<path d="M709.156 325.908C706.648 311.795 719.439 297.482 738.05 294.135C756.66 290.788 773.588 299.757 776.095 313.869C778.602 327.982 765.811 342.295 747.201 345.642C728.59 348.989 711.663 340.021 709.156 325.908Z" fill="#182EC0" stroke="#182EC0"/>
<path d="M1136.16 90.7944C1133.65 76.6817 1146.44 62.3685 1165.05 59.0215C1183.66 55.6746 1200.59 64.6432 1203.09 78.7559C1205.6 92.8686 1192.81 107.182 1174.2 110.529C1155.59 113.876 1138.66 104.907 1136.16 90.7944Z" fill="#182EC0" stroke="#182EC0"/>
<path d="M995.156 130.033C992.648 115.92 1005.44 101.607 1024.05 98.2598C1042.66 94.9129 1059.59 103.881 1062.09 117.994C1064.6 132.107 1051.81 146.42 1033.2 149.767C1014.59 153.114 997.663 144.145 995.156 130.033Z" fill="#182EC0" stroke="#182EC0"/>
<path d="M852.156 38.4768C849.648 24.3641 862.439 10.0509 881.05 6.70392C899.66 3.35698 916.588 12.3256 919.095 26.4383C921.602 40.551 908.811 54.8642 890.201 58.2112C871.59 61.5581 854.663 52.5895 852.156 38.4768Z" fill="#182EC0" stroke="#182EC0"/>
<path d="M1418.16 420.482C1415.65 406.37 1428.44 392.056 1447.05 388.71C1465.66 385.363 1482.59 394.331 1485.09 408.444C1487.6 422.557 1474.81 436.87 1456.2 440.217C1437.59 443.564 1420.66 434.595 1418.16 420.482Z" fill="#182EC0" stroke="#182EC0"/>
<path d="M1277.16 302.768C1274.65 288.655 1287.44 274.342 1306.05 270.995C1324.66 267.648 1341.59 276.616 1344.09 290.729C1346.6 304.842 1333.81 319.155 1315.2 322.502C1296.59 325.849 1279.66 316.88 1277.16 302.768Z" fill="#182EC0" stroke="#182EC0"/>
<path d="M1701.16 251.456C1698.65 237.343 1711.44 223.03 1730.05 219.683C1748.66 216.336 1765.59 225.305 1768.09 239.418C1770.6 253.53 1757.81 267.843 1739.2 271.19C1720.59 274.537 1703.66 265.569 1701.16 251.456Z" fill="#182EC0" stroke="#182EC0"/>
<path d="M1842.16 303.774C1839.65 289.661 1852.44 275.348 1871.05 272.001C1889.66 268.654 1906.59 277.622 1909.09 291.735C1911.6 305.848 1898.81 320.161 1880.2 323.508C1861.59 326.855 1844.66 317.886 1842.16 303.774Z" fill="#182EC0" stroke="#182EC0"/>
<path d="M5.15573 436.896C2.6484 422.784 15.4394 408.47 34.0498 405.123C52.6602 401.777 69.5876 410.745 72.0949 424.858C74.6023 438.971 61.8113 453.284 43.2008 456.631C24.5904 459.978 7.66307 451.009 5.15573 436.896Z" fill="#182EC0" stroke="#182EC0"/>
<path d="M146.156 215.552C143.648 201.44 156.439 187.126 175.05 183.779C193.66 180.432 210.588 189.401 213.095 203.514C215.602 217.626 202.811 231.94 184.201 235.287C165.59 238.634 148.663 229.665 146.156 215.552Z" fill="#182EC0" stroke="#182EC0"/>
<path d="M1560.16 323.896C1557.65 309.783 1570.44 295.47 1589.05 292.123C1607.66 288.776 1624.59 297.745 1627.09 311.857C1629.6 325.97 1616.81 340.283 1598.2 343.63C1579.59 346.977 1562.66 338.009 1560.16 323.896Z" fill="#182EC0" stroke="#182EC0"/>
<path d="M287.156 325.908C284.648 311.795 297.439 297.482 316.05 294.135C334.66 290.788 351.588 299.757 354.095 313.869C356.602 327.982 343.811 342.295 325.201 345.642C306.59 348.989 289.663 340.021 287.156 325.908Z" fill="#182EC0" stroke="#182EC0"/>
</g>
<defs>
<filter id="filter0_b_517_1458" x="0" y="1.50439" width="1913.91" height="891.97" filterUnits="userSpaceOnUse" color-interpolation-filters="sRGB">
<feFlood flood-opacity="0" result="BackgroundImageFix"/>
<feGaussianBlur in="BackgroundImageFix" stdDeviation="2"/>
<feComposite in2="SourceAlpha" operator="in" result="effect1_backgroundBlur_517_1458"/>
<feBlend mode="normal" in="SourceGraphic" in2="effect1_backgroundBlur_517_1458" result="shape"/>
</filter>
</defs>
</svg>
