<svg width="2800" height="3818" viewBox="0 0 2800 3818" fill="none" xmlns="http://www.w3.org/2000/svg">
<path d="M462.42 1729.72C470.708 1790.32 495.183 1847.69 505.801 1907.9C515.513 1963.12 513.506 2019.84 522.7 2075.13C540.959 2185.19 602.016 2282.63 646.628 2384.92C784.54 2700.93 764.598 3064.91 685.282 3400.41C660.16 3506.65 629.728 3620.47 669.742 3722.05C674.34 3733.71 680.361 3745.62 691.109 3752.03C707.62 3761.87 730.087 3754.62 743.166 3740.5C756.245 3726.39 761.943 3707.16 766.54 3688.45C792.957 3581.11 795.806 3469.62 806.684 3359.56C816.331 3261.86 832.453 3164.81 854.856 3069.19C865.151 3025.29 876.741 2981.65 882.827 2936.98C889.431 2888.75 889.496 2839.87 889.561 2791.18C889.949 2536.35 890.338 2281.46 890.662 2026.63C890.726 1977.24 890.662 1927.06 876.806 1879.73C855.827 1808.19 805.389 1749.66 756.375 1693.6C722.318 1654.62 687.678 1615.13 644.491 1586.64C602.988 1559.26 539.146 1530.19 498.614 1569.68C460.996 1606.32 455.816 1681.68 462.42 1729.59V1729.72Z" fill="#98E176"/>
<path d="M2167.29 1636.17C2201.22 1621.09 2240.59 1623.35 2276.52 1632.74C2293.74 1637.21 2311.36 1643.81 2322.82 1657.41C2336.15 1673.2 2338.48 1695.28 2339.97 1715.87C2345.35 1791.1 2346.19 1866.59 2342.63 1941.95C2339.13 2014.72 2331.1 2088.72 2301.58 2155.34C2283.77 2195.42 2258.72 2231.74 2235.41 2268.9C2122.94 2448.63 2051.72 2653.93 2028.54 2864.73C2021.03 2933.23 2018.89 3004.7 2044.53 3068.6C2060.26 3107.97 2085.77 3142.47 2109.02 3177.89C2163.73 3261.08 2207.57 3351.53 2238.9 3446.05C2247.13 3470.72 2254.51 3496.03 2255.35 3522.06C2257.74 3596.71 2207.18 3661.32 2159.26 3718.62C2101.12 3706.51 2079.24 3636.59 2068.1 3578.26C2054.37 3506.33 2040.71 3434.33 2026.98 3362.41C2007.95 3262.25 1988.78 3160.93 1994.35 3059.15C1996.62 3017.72 2002.96 2975.83 1995.65 2934.91C1982.83 2863.43 1930.57 2806.01 1902.6 2739C1864.53 2647.52 1873.92 2542.76 1900.27 2447.27C1926.69 2351.77 1969.1 2261.33 1996.81 2166.15C2024.65 2070.59 2037.34 1971.6 2061.3 1875.07C2073.28 1826.9 2094.58 1782.23 2107.79 1734.97C2119.57 1692.69 2120.16 1657.08 2167.23 1636.11L2167.29 1636.17Z" fill="#98E176"/>
<path d="M1996.68 2000.74C1961.78 2045.73 1932.71 2078.69 1898.72 2124.4C1852.68 2186.29 1897.75 2302.76 1875.02 2376.44C1838.05 2496.41 1751.29 2600.77 1689.26 2709.93C1741 2673.03 1834.36 2641.17 1887.71 2675.61C1919.05 2695.81 1932.26 2734.73 1939.32 2771.37C1958.16 2868.74 1948.9 2969.03 1942.36 3068.02C1936.99 3149.4 1933.49 3231.17 1939.64 3312.55C1946.7 3404.62 1966.12 3495.26 1985.48 3585.51C2004.07 3672 2027.7 3766.66 2099.76 3818C2135.96 3782.52 2141.98 3725.16 2130.39 3675.82C2118.8 3626.49 2092.51 3582.08 2071.4 3535.98C2011.71 3405.85 1992.6 3260.18 1994.61 3117.03C1996.62 2973.88 2018.83 2831.9 2038.45 2690.12C2042.2 2662.86 2045.31 2632.82 2029.9 2610.03C2014.55 2587.24 1972.86 2583.03 1962.89 2608.67C1936.34 2596.31 1937.96 2557.01 1951.75 2531.11C1989.04 2461.19 2075.74 2430.76 2118.6 2364.07C2183.09 2263.66 2124.37 2129.64 2147.29 2012.52C2158.62 1954.58 2189.96 1901.94 2200.44 1843.8C2206.14 1812.21 2214.82 1650.03 2189.05 1625.23C2144.05 1581.85 2083.7 1742.03 2083.32 1775.76C2082.22 1863.74 2052.3 1929.26 1996.68 2000.8V2000.74Z" fill="#5A7AAA"/>
<path d="M757.669 2276.09C759.417 2371.13 752.942 2471.93 799.107 2555.06C810.438 2575.39 825.136 2595.59 825.136 2618.9C825.136 2633.6 819.179 2647.58 814.323 2661.44C792.827 2722.55 791.402 2788.66 790.302 2853.46C786.74 3052.94 783.115 3252.41 779.553 3451.82C835.819 3425.92 854.337 3356.51 866.38 3295.72C875.574 3249.3 884.768 3202.62 885.481 3155.36C886.905 3058.18 852.33 2963.2 853.366 2866.02C854.208 2789.37 876.934 2710.38 852.848 2637.55C932.487 2665 1078.82 2678.92 1162.15 2691.09C1132.56 2643.24 1074.61 2591.64 1053.63 2539.46C1043.79 2514.99 1026.44 2478.28 1025.27 2451.93C1016.98 2268.38 888.2 2138.57 829.862 1964.35C814.711 1919.16 800.661 1872.74 774.374 1832.99C759.287 1810.13 696.158 1736.07 668.187 1774.14C649.475 1799.65 701.727 1903.56 709.691 1933.47C739.41 2045.15 755.661 2160.46 757.733 2276.02L757.669 2276.09Z" fill="#5A7AAA"/>
<path d="M495.184 56.6426C350.991 76.1949 190.028 105.523 106.309 224.52C76.8492 266.474 60.1443 316.002 47.4537 365.66C-48.8909 743.304 70.8924 1145.49 256.2 1488.43C279.121 1530.77 303.725 1573.56 340.437 1604.71C377.149 1635.85 428.688 1653.65 474.465 1638.63C510.465 1626.78 537.205 1597.26 565.824 1572.53C744.139 1418.57 1008.96 1439.74 1235.44 1374.87C1317.35 1351.43 1397.31 1315.63 1482.46 1312.39C1649.77 1306.05 1794.74 1424.4 1957.51 1463.44C2029.7 1480.72 2106.69 1482.8 2173.06 1516.07C2207.37 1533.29 2237.55 1558.35 2272.83 1573.43C2368.85 1614.55 2485.79 1570.97 2554.36 1492.18C2622.92 1413.33 2650.96 1307.02 2662.29 1203.17C2673.62 1099.32 2670.38 994.052 2686.44 890.852C2710.98 733.269 2780 572.836 2733.84 420.238C2709.88 341.187 2657.3 274.567 2605.77 210.018C2574.56 170.913 2538.49 128.96 2489.03 121.968C2499.45 197.005 2553.58 249.187 2586.6 317.361C2610.56 366.89 2619.56 422.309 2623.05 477.211C2630.18 588.374 2615.41 702.322 2568.79 803.45C2522.18 904.643 2442.08 992.175 2340.11 1037.04C2173.7 1110.2 1982.76 1062.81 1801.34 1051.8C1594.6 1039.31 1387.21 1076.21 1180.47 1063.13C1090.22 1057.44 1000.73 1042.22 910.476 1036.85C761.945 1027.98 613.09 1045.85 464.299 1044.75C424.674 1044.49 383.753 1042.48 348.142 1025.32C317.775 1010.63 293.301 985.765 273.553 958.444C208.352 868.128 191.194 752.303 183.553 641.14C175.071 517.416 179.539 382.104 257.625 285.832C325.351 202.249 440.472 149.289 495.184 56.7073V56.6426Z" fill="#98E176"/>
<path d="M1118.51 1295.11C1174.45 1269.6 1230.26 1241.3 1291 1231.53C1416.03 1211.39 1537.82 1271.73 1655.53 1318.35C1884.48 1408.92 2132.2 1451.78 2378.31 1443.37C2386.53 1443.11 2395.34 1442.91 2402.13 1447.45C2415.28 1456.25 2412.49 1477.75 2401.1 1488.75C2389.7 1499.76 2373.39 1503.32 2358.23 1507.66C2261.7 1535.3 2181.41 1614.09 2152.01 1710.17C2133.37 1771.03 2134.4 1835.9 2125.4 1898.83C2116.4 1961.83 2094.32 2027.67 2043.11 2065.35C2018.37 2083.54 1988.14 2094.16 1965.93 2115.4C1917.56 2161.69 1923.58 2238.54 1919.83 2305.42C1911.35 2457.95 1829.44 2604.66 1704.15 2692.06C1742.94 2669.92 1784.76 2647.06 1829.31 2650.43C1892.44 2655.29 1940.74 2713.36 1956.8 2774.61C1972.86 2835.85 1964.12 2900.47 1958.68 2963.53C1938.09 3202.49 1966.38 3445.54 2041.29 3673.36C1592.92 3702.05 1144.6 3730.73 696.226 3759.47C686.967 3712.28 691.37 3662.42 708.787 3617.56C723.873 3578.65 748.154 3544.01 765.247 3505.94C780.009 3472.99 789.139 3437.83 797.297 3402.74C856.994 3146.81 870.85 2880.2 837.959 2619.48C930.224 2652.83 1028.96 2668.23 1127.06 2664.61C1021 2597.47 969.137 2472.71 923.555 2355.79C873.894 2228.44 824.232 2101.09 774.571 1973.8C752.103 1916.25 729.571 1858.43 698.363 1805.15C659.449 1738.72 607.91 1680.97 551.515 1628.92C508.004 1588.71 409.005 1538.93 387.703 1485.51C430.307 1460.85 519.724 1468.03 571.004 1459.88C634.457 1449.78 697.521 1436.83 759.808 1421.03C882.829 1389.89 1003.07 1347.68 1118.51 1295.04V1295.11Z" fill="#182EC0"/>
<path d="M45.8353 1146.91C48.231 1207.96 50.6267 1269.08 58.4611 1329.68C67.2021 1397.14 82.6768 1463.5 95.6263 1530.25C128.712 1700.78 145.417 1874.49 145.417 2048.26C145.417 2070.53 145.935 2095 160.698 2111.71C173.129 2125.69 192.554 2130.61 209.064 2139.42C236.906 2154.18 256.719 2180.07 279.963 2201.31C303.272 2222.48 334.74 2239.96 365.171 2231.74C395.408 2223.52 413.538 2193.22 427.005 2164.92C494.084 2023.66 523.803 1864.84 512.343 1708.94C510.853 1688.87 508.005 1667.25 494.213 1652.62C478.156 1635.65 452.645 1633.32 430.178 1626.98C377.214 1612.02 335.646 1571.04 302.042 1527.4C256.654 1468.36 221.561 1402.19 186.791 1336.28C134.022 1236.45 98.9285 1130.79 72.8999 1019.82C67.7201 997.743 44.7994 805.133 5.49752 881.335C-8.35849 908.268 24.3391 989.779 25.5693 1019.82C27.2528 1063.72 44.0872 1103.08 45.8353 1146.97V1146.91Z" fill="#3567A2"/>
<path d="M2770.29 963.429C2788.22 1001.95 2794.76 1044.81 2796.96 1087.22C2806.35 1265.97 2742.96 1439.94 2721.86 1617.72C2707.81 1736.07 2712.4 1856.94 2684.89 1972.9C2674.59 2016.34 2658.92 2060.24 2627.45 2091.89C2601.04 2118.44 2565.69 2134.24 2537.46 2158.9C2517.38 2176.45 2501.39 2198.14 2482.74 2217.3C2459.18 2241.45 2430.23 2262.04 2397.02 2268C2363.8 2273.95 2326.05 2262.49 2307.67 2234.2C2297.63 2218.79 2294.07 2200.21 2291.48 2182.02C2279.95 2100.7 2284.42 2017.18 2304.62 1937.61C2309.93 1916.64 2316.41 1895.14 2313.49 1873.65C2309.93 1847.56 2293.1 1825.22 2286.3 1799.78C2281.77 1782.75 2281.83 1764.43 2274.39 1748.5C2255.48 1707.78 2195.13 1695.48 2183.93 1652.03C2176.1 1621.6 2196.82 1591.89 2216.31 1567.22C2244.34 1531.81 2276.65 1493.87 2321.26 1487C2340.1 1484.09 2359.33 1487.2 2378.18 1489.92C2421.95 1496.2 2466.69 1500.41 2510.26 1492.96C2553.84 1485.51 2577.99 1437.8 2605.05 1402.77C2632.57 1367.1 2629.98 1317.31 2636.97 1272.83C2646.23 1214.24 2658.47 1162.97 2656.46 1103.66C2654.45 1044.36 2668.25 1006.61 2679.58 947.632C2682.94 930.216 2691.49 883.278 2717.45 888.263C2737.53 892.148 2762.32 946.467 2770.16 963.3L2770.29 963.429Z" fill="#3567A2"/>
<path d="M139.2 350.315C69.5316 511.589 93.6825 698.825 149.171 865.473C176.754 948.279 217.027 1034.71 294.012 1075.69C335.968 1098.03 384.4 1104.24 431.73 1108.52C519.981 1116.48 608.621 1118.94 697.196 1121.21C1071.7 1130.92 1446.33 1138.04 1820.96 1142.64C1940.55 1144.13 2060.39 1145.29 2179.66 1136.29C2312.91 1126.19 2456.65 1097.19 2543.99 996.059C2652.77 870.07 2635.16 683.676 2636.26 517.287C2637.04 396.412 2646.81 261.812 2568.79 169.424C2509.68 99.3727 2414.18 72.8282 2323.53 59.1027C2107.47 26.4077 1887.45 45.7657 1668.93 45.8952C1540.15 45.96 1411.36 39.3562 1283.23 26.7314C1241.59 22.6526 1199.96 17.9264 1158.26 14.3655C883.669 -9.07133 525.032 -16.193 292.264 158.353C226.092 208.011 172.092 274.243 139.2 350.315Z" fill="url(#paint0_linear_658_20)"/>
<path d="M1316.57 1427.05C1363.19 1424.72 1671 1535.95 1670.74 1578.55C1477.02 1460.52 1563.91 1610.92 1366.94 1615.91C1340.53 1616.55 1005.59 1451.98 1109.9 1620.05C1036.93 1646.34 1034.92 1585.02 1065.8 1530.7C1101.87 1467.32 1219.9 1485.32 1281.8 1480.21C1287.37 1459.23 1283.29 1442.78 1269.63 1430.94C1285.17 1428.67 1300.71 1426.4 1316.31 1424.07C1316.44 1425.04 1316.51 1426.02 1316.64 1426.99L1316.57 1427.05Z" fill="#5A7AAA"/>
<path d="M1179.31 2018.74C1238.75 2022.88 1297.86 2021.84 1356.85 2015.76C1333.67 1984.87 1307.06 1991.22 1268.4 1989.54C1261.21 2001.71 1389.42 1960.79 1381.45 1953.54C1416.93 1986.11 1415.12 1994.2 1375.75 2006.89C1452.54 2025.6 1573.95 1965 1614.02 2051.62C1614.48 1993.55 1649.96 2045.93 1694.51 2081.47C1735.88 2114.55 1485.05 2030.26 1552.84 2062.7C1538.59 2154.18 1197.57 2151.65 1154.77 2104.13C1154.9 2096.17 1155.03 2088.14 1155.09 2080.18C1155.48 2079.14 1155.87 2078.1 1156.26 2077.07C1161.96 2072.15 1167.59 2067.16 1173.29 2062.24C1175.75 2060.04 1178.21 2057.84 1180.6 2055.7C1183.32 2053.7 1185.98 2051.69 1188.7 2049.75C1189.6 2049.49 1190.45 2049.29 1191.35 2049.23L1201.65 2030.19C1198.41 2029.35 1195.17 2028.58 1191.93 2027.73L1191.61 2027.61C1190.77 2026.7 1189.93 2025.79 1189.09 2024.89C1186.69 2027.86 1184.29 2030.84 1181.96 2033.89C1181.06 2028.84 1180.22 2023.79 1179.31 2018.74ZM1225.09 2037.45C1221.46 2032.2 1219.52 2029.42 1217.57 2026.63C1201.84 2039.19 1198.93 2050.2 1208.83 2059.65C1214.14 2052.4 1219.45 2045.15 1225.09 2037.45ZM1364.29 2101.8C1365.72 2108.73 1366.82 2114.43 1367.98 2120.06C1377.37 2106.66 1377.7 2094.87 1368.89 2084.77C1367.27 2090.73 1365.72 2096.62 1364.29 2101.8Z" fill="#5A7AAA"/>
<path d="M1805.09 1942.47C1755.37 1889.83 1756.66 1885.82 1702.4 1940.91C1686.73 1921.17 1671.07 1901.49 1655.4 1881.74C1674.04 1892.16 1690.36 1905.76 1704.28 1922.53C1688.81 1866.01 1663.04 1856.62 1613.76 1818.87C1631.18 1831.89 1639.92 1847.69 1640.05 1866.2C1541.83 1867.11 1491.46 1835.71 1488.8 1772C1531.92 1752.84 1572.26 1764.88 1609.75 1808.13L1608.71 1808.71L1609.17 1809.16L1609.75 1808.19C1679.68 1842.44 1772.33 1867.24 1805.09 1942.6V1942.47ZM1740.73 1891.58C1738.99 1894.62 1739.31 1895.85 1742.48 1893.65C1741.96 1893 1741.38 1892.36 1740.73 1891.58Z" fill="#5A7AAA"/>
<path d="M1354.13 1810.91C1333.15 1925.57 1273.77 1892.16 1172.12 1930.75C1176.07 1879.6 1359.11 1813.44 1354.13 1810.91Z" fill="#5A7AAA"/>
<g clip-path="url(#clip0_658_20)">
<path d="M1455.02 604.501C1466.85 604.501 1476.44 594.955 1476.44 583.178C1476.44 571.402 1466.85 561.855 1455.02 561.855C1443.19 561.855 1433.61 571.402 1433.61 583.178C1433.61 594.955 1443.19 604.501 1455.02 604.501Z" fill="#AAFE83"/>
<path d="M1948.34 604.833C1960.17 604.833 1969.76 595.286 1969.76 583.51C1969.76 571.734 1960.17 562.187 1948.34 562.187C1936.51 562.187 1926.92 571.734 1926.92 583.51C1926.92 595.286 1936.51 604.833 1948.34 604.833Z" fill="#AAFE83"/>
<path d="M837.008 726.142H693V440.657H718.894V700.363H837.008V726.142Z" fill="#AAFE83"/>
<path d="M1257.01 751L1122.51 440.657H1149.51L1256.08 685.227L1366.36 440.657H1392.29L1257.01 751Z" fill="#AAFE83"/>
<path d="M1741.85 726.363L1589.45 584.504L1733.35 440.583H1766.6L1625.33 583.178L1778.33 726.363H1741.85Z" fill="#AAFE83"/>
<path d="M1466.42 635.878H1440.52V726.363H1466.42V635.878Z" fill="#AAFE83"/>
<path d="M1597.22 440.657H1571.32V726.363H1597.22V440.657Z" fill="#AAFE83"/>
<path d="M1948.34 732.66C1865.74 732.66 1798.53 665.745 1798.53 583.51C1798.53 501.275 1865.74 434.36 1948.34 434.36C2030.94 434.36 2098.16 501.275 2098.16 583.51C2098.16 665.745 2030.94 732.66 1948.34 732.66ZM1948.34 456.456C1877.98 456.456 1820.72 513.465 1820.72 583.51C1820.72 653.555 1877.98 710.564 1948.34 710.564C2018.7 710.564 2075.96 653.555 2075.96 583.51C2075.96 513.465 2018.7 456.456 1948.34 456.456Z" fill="#AAFE83"/>
<path d="M2190.86 479.989L2148.8 400.11H2160.49L2202.99 479.989H2190.86Z" fill="#AAFE83"/>
<path d="M2272.83 479.989L2250.27 437.564L2261.73 435.759L2285 479.989H2272.83Z" fill="#AAFE83"/>
<path d="M2158.08 479.989L2145.62 480.062L2189.01 400.11L2201.51 400L2158.08 479.989Z" fill="#AAFE83"/>
<path d="M2241.94 479.989H2231.25V433.734H2251.75C2254.67 433.734 2258.66 433.366 2263.21 430.788C2265.32 429.757 2269.47 426.847 2269.47 421.434C2269.47 418.082 2268.62 415.615 2266.91 413.958C2264.81 411.932 2261.11 410.864 2256.85 410.901L2231.44 410.754V400.147C2231.44 400.147 2242.8 400.111 2256.52 400.111C2260.85 400.037 2268.76 400.884 2274.42 406.371C2278.27 410.091 2280.19 415.173 2280.19 421.47C2280.19 433.476 2272.02 439.147 2264.77 441.468C2264.77 441.468 2261.33 443.972 2251.78 444.377H2241.98V479.989H2241.94Z" fill="#AAFE83"/>
<path d="M907.07 604.759C918.899 604.759 928.488 595.213 928.488 583.436C928.488 571.66 918.899 562.113 907.07 562.113C895.242 562.113 885.652 571.66 885.652 583.436C885.652 595.213 895.242 604.759 907.07 604.759Z" fill="#AAFE83"/>
<path d="M1053.85 440.473H894.16V466.252H1053.85V440.473Z" fill="#AAFE83"/>
<path d="M1050.63 570.289H960.301V596.068H1050.63V570.289Z" fill="#AAFE83"/>
<path d="M1053.85 726.363H894.121V636.283H920.015V700.068H1053.85V726.363Z" fill="#AAFE83"/>
</g>
<defs>
<linearGradient id="paint0_linear_658_20" x1="1366.72" y1="2.12451" x2="1366.72" y2="1143.66" gradientUnits="userSpaceOnUse">
<stop stop-color="#888FBC"/>
<stop offset="1" stop-color="#182EC0"/>
</linearGradient>
<clipPath id="clip0_658_20">
<rect width="1592" height="351" fill="white" transform="translate(693 400)"/>
</clipPath>
</defs>
</svg>
