<svg width="109" height="110" viewBox="0 0 109 110" fill="none" xmlns="http://www.w3.org/2000/svg">
<path d="M49.959 11.9102C47.197 10.3156 44.0639 9.47614 40.8746 9.47632C37.6854 9.4765 34.5524 10.3163 31.7906 11.9112C29.0287 13.5062 26.7355 15.8001 25.1413 18.5623C23.5472 21.3246 22.7083 24.4578 22.709 27.6471V35.704C18.844 37.2572 15.6739 39.6734 13.3577 42.8571C10.4102 46.9128 9.08398 51.8769 9.08398 57.1679C9.08398 64.2574 12.6946 70.5022 18.1673 74.1628V79.8762C18.167 83.5773 19.1718 87.209 21.0743 90.3837C22.9769 93.5583 25.7058 96.1568 28.9698 97.9016C32.2338 99.6464 35.9103 100.472 39.607 100.291C43.3036 100.109 46.8816 98.9273 49.959 96.8711V79.8762C49.959 73.8222 48.4602 69.9527 46.0532 67.3412C43.587 64.6753 39.5858 62.6906 33.3183 61.646L34.808 52.6898C40.7212 53.6708 45.8987 55.5193 49.959 58.653V11.9102ZM59.0423 11.9102V58.653C63.1026 55.5193 68.2801 53.6708 74.1933 52.6898L75.683 61.646C69.4155 62.6906 65.4143 64.6753 62.9482 67.3458C60.5411 69.9527 59.0423 73.8222 59.0423 79.8762V96.8711C62.1197 98.9273 65.6977 100.109 69.3943 100.291C73.091 100.472 76.7675 99.6464 80.0315 97.9016C83.2955 96.1568 86.0244 93.5583 87.927 90.3837C89.8295 87.209 90.8343 83.5773 90.834 79.8762V74.1628C96.3067 70.5022 99.9173 64.262 99.9173 57.1679C99.9173 51.8769 98.5912 46.9128 95.6436 42.8616C93.3274 39.6734 90.1573 37.2572 86.2923 35.704V27.6471C86.293 24.4578 85.4541 21.3246 83.86 18.5623C82.2658 15.8001 79.9726 13.5062 77.2108 11.9112C74.449 10.3163 71.3159 9.4765 68.1267 9.47632C64.9374 9.47614 61.8043 10.3156 59.0423 11.9102Z" fill="#F2F2F2"/>
</svg>
