<svg width="101" height="102" viewBox="0 0 101 102" fill="none" xmlns="http://www.w3.org/2000/svg">
<g clip-path="url(#clip0_363_3503)">
<path d="M86.5408 62.6803C83.9876 70.5621 78.9204 77.3893 72.1158 82.1157C65.3112 86.842 57.1446 89.2068 48.8674 88.8477C40.5901 88.4886 32.659 85.4253 26.2893 80.1273C19.9197 74.8294 15.4629 67.589 13.6019 59.5157L20.7645 58.1017L7.12952 43.9953L-0.0078125 62.2342L7.54194 60.7529C9.64893 70.23 14.8185 78.7495 22.2517 84.9947C29.6849 91.2399 38.968 94.8633 48.6665 95.3049C58.3649 95.7465 67.9389 92.9817 75.9089 87.4378C83.8789 81.8939 89.8012 73.8794 92.7607 64.633L86.5408 62.6803ZM93.5771 41.302C91.4691 31.8252 86.2987 23.3065 78.8649 17.0621C71.4311 10.8178 62.1477 7.1954 52.4493 6.75478C42.7509 6.31416 33.1774 9.07982 25.208 14.6244C17.2386 20.1689 11.3171 28.1838 8.35835 37.4303L14.3594 39.383C16.9118 31.5011 21.9782 24.6735 28.7822 19.9465C35.5862 15.2194 43.7525 12.8538 52.0296 13.2119C60.3068 13.5701 68.2382 16.6324 74.6084 21.9295C80.9786 27.2266 85.4363 34.4663 87.2983 42.5392L80.1357 43.9617L93.7707 58.0343L100.992 39.8207L93.5771 41.302Z" fill="#F2F2F2"/>
<path fill-rule="evenodd" clip-rule="evenodd" d="M28.785 50.3078C36.4778 30.7138 64.5221 30.7138 72.215 50.3078C64.5221 69.9018 36.4778 69.9018 28.785 50.3078ZM78.7379 49.7776C69.8162 22.4739 31.1837 22.4739 22.262 49.7776C22.1496 50.1192 22.1496 50.488 22.262 50.8296C31.1837 78.1417 69.8162 78.1417 78.7379 50.8296C78.8503 50.488 78.8503 50.1192 78.7379 49.7776Z" fill="#F2F2F2"/>
<path fill-rule="evenodd" clip-rule="evenodd" d="M50.5 47.1094C50.0855 47.1094 49.6751 47.191 49.2922 47.3496C48.9092 47.5082 48.5613 47.7407 48.2682 48.0338C47.9751 48.3269 47.7426 48.6748 47.584 49.0578C47.4254 49.4407 47.3438 49.8511 47.3438 50.2656C47.3438 50.6801 47.4254 51.0905 47.584 51.4735C47.7426 51.8564 47.9751 52.2043 48.2682 52.4974C48.5613 52.7905 48.9092 53.023 49.2922 53.1816C49.6751 53.3402 50.0855 53.4219 50.5 53.4219C51.3371 53.4219 52.1399 53.0893 52.7318 52.4974C53.3237 51.9055 53.6562 51.1027 53.6562 50.2656C53.6562 49.4285 53.3237 48.6257 52.7318 48.0338C52.1399 47.4419 51.3371 47.1094 50.5 47.1094ZM41.0312 50.2656C41.0312 47.7544 42.0288 45.3459 43.8046 43.5702C45.5803 41.7945 47.9887 40.7969 50.5 40.7969C53.0113 40.7969 55.4197 41.7945 57.1954 43.5702C58.9712 45.3459 59.9688 47.7544 59.9688 50.2656C59.9688 52.7769 58.9712 55.1853 57.1954 56.961C55.4197 58.7368 53.0113 59.7344 50.5 59.7344C47.9887 59.7344 45.5803 58.7368 43.8046 56.961C42.0288 55.1853 41.0312 52.7769 41.0312 50.2656Z" fill="#F2F2F2"/>
</g>
<defs>
<clipPath id="clip0_363_3503">
<rect width="101" height="101" fill="white" transform="translate(0 0.396973)"/>
</clipPath>
</defs>
</svg>
