<svg width="145" height="161" viewBox="0 0 145 161" fill="none" xmlns="http://www.w3.org/2000/svg">
<path d="M24.0901 45.4444C22.18 44.9405 20.5924 43.6142 19.7568 41.8242C18.9211 40.0342 18.9237 37.9655 19.7638 36.1777L34.5029 4.80995C35.6013 2.47236 37.9527 0.981185 40.5355 0.98438C43.1182 0.987575 45.466 2.48461 46.5586 4.82486L53.0606 18.7518C53.2931 18.6604 53.5332 18.5812 53.7801 18.515C92.3624 8.17686 132.021 31.0735 142.359 69.656C152.697 108.239 129.801 147.897 91.2184 158.236C52.6354 168.573 12.9772 145.677 2.63893 107.094C-0.648638 94.8246 -0.574617 82.428 2.3047 70.9012C3.19566 67.3352 6.80921 65.1662 10.3757 66.0572C13.9423 66.9474 16.1113 70.5613 15.2203 74.1281C12.8747 83.5179 12.81 93.6176 15.4978 103.649C23.9331 135.13 56.2918 153.811 87.7723 145.377C119.254 136.941 137.936 104.583 129.501 73.1022C121.203 42.1355 89.7585 23.553 58.7706 30.9818L65.331 45.0336C66.4235 47.3738 66.0631 50.1349 64.408 52.117C62.7519 54.099 60.0991 54.9443 57.6017 54.2855L24.0901 45.4444Z" fill="black"/>
<path fill-rule="evenodd" clip-rule="evenodd" d="M53.2188 89.5C53.2188 79.4035 61.4035 71.2188 71.5 71.2188C81.5966 71.2188 89.7812 79.4035 89.7812 89.5C89.7812 99.5966 81.5966 107.781 71.5 107.781C61.4035 107.781 53.2188 99.5966 53.2188 89.5ZM71.5 78.5312C65.4423 78.5312 60.5312 83.4423 60.5312 89.5C60.5312 95.5577 65.4423 100.469 71.5 100.469C77.5577 100.469 82.4688 95.5577 82.4688 89.5C82.4688 83.4423 77.5577 78.5312 71.5 78.5312Z" fill="black"/>
<path d="M110.977 97.5242L110.977 97.5243C108.834 100.612 105.709 103.879 101.82 106.864C94.0366 112.838 83.3088 117.594 71.5 117.594C59.6909 117.594 48.9632 112.838 41.1796 106.864C37.2905 103.879 34.1654 100.612 32.0228 97.5241C29.8585 94.4055 28.7812 91.594 28.7812 89.5C28.7812 87.406 29.8585 84.5945 32.0228 81.4759L110.977 97.5242ZM110.977 97.5242C113.142 94.4055 114.219 91.594 114.219 89.5C114.219 87.406 113.142 84.5945 110.977 81.4758L110.977 81.4757M110.977 97.5242L110.977 81.4757M110.977 81.4757C108.834 78.3884 105.709 75.1209 101.82 72.136C94.0367 66.1622 83.3088 61.4062 71.5 61.4062C59.6909 61.4062 48.9632 66.1622 41.1797 72.136L42.7018 74.1192M110.977 81.4757L42.7018 74.1192M42.7018 74.1192L41.1796 72.136C37.2906 75.1209 34.1655 78.3883 32.0229 81.4758L42.7018 74.1192ZM39.7717 70.3015L39.7717 70.3015C47.8683 64.0874 59.0781 59.0938 71.5 59.0938C83.9218 59.0938 95.1314 64.0874 103.228 70.3015C107.279 73.4104 110.579 76.8462 112.877 80.1572C115.153 83.4371 116.531 86.7193 116.531 89.5C116.531 92.2807 115.153 95.5628 112.877 98.843C110.579 102.154 107.279 105.589 103.228 108.699C95.1313 114.913 83.9217 119.906 71.5 119.906C59.0781 119.906 47.8683 114.913 39.7717 108.699C35.7208 105.589 32.4207 102.154 30.123 98.843C27.8467 95.5629 26.4688 92.2807 26.4688 89.5C26.4688 86.7192 27.8468 83.4371 30.123 80.1572L30.123 80.1572C32.4207 76.8463 35.7209 73.4104 39.7717 70.3015Z" fill="black" stroke="black" stroke-width="5"/>
</svg>
