<svg viewBox="0 0 254 56" fill="none" xmlns="http://www.w3.org/2000/svg">
    <g clip-path="url(#a)" fill="#AAFE83">
        <path d="M121.579 32.627a3.41 3.41 0 0 0 3.418-3.402 3.41 3.41 0 0 0-3.418-3.402 3.41 3.41 0 0 0-3.417 3.402 3.41 3.41 0 0 0 3.417 3.402ZM200.286 32.68a3.41 3.41 0 0 0 3.418-3.402 3.41 3.41 0 0 0-3.418-3.402 3.41 3.41 0 0 0-3.417 3.402 3.41 3.41 0 0 0 3.417 3.402ZM22.976 52.034H0V6.487h4.131V47.92h18.845v4.113ZM89.987 56 68.527 6.487h4.309l17.003 39.02 17.594-39.02h4.137L89.987 56ZM167.342 52.07l-24.316-22.633 22.959-22.962h5.306l-22.54 22.75 24.41 22.844h-5.819ZM123.397 37.633h-4.131v14.436h4.131V37.633Z"/>
        <path d="M144.266 6.487h-4.131v45.582h4.131V6.487ZM200.286 53.074c-13.178 0-23.902-10.676-23.902-23.796s10.724-23.796 23.902-23.796c13.179 0 23.903 10.676 23.903 23.796s-10.724 23.796-23.903 23.796Zm0-44.067c-11.225 0-20.361 9.096-20.361 20.271s9.136 20.27 20.361 20.27c11.226 0 20.362-9.095 20.362-20.27 0-11.175-9.136-20.27-20.362-20.27ZM238.98 12.762 232.27.018h1.865l6.781 12.744h-1.936ZM252.058 12.762l-3.6-6.769 1.83-.288L254 12.762h-1.942Z"/>
        <path d="m233.751 12.762-1.989.011L238.685.018 240.679 0l-6.928 12.762ZM247.13 12.762h-1.705v-7.38h3.269c.467 0 1.104-.059 1.83-.47.336-.164.997-.629.997-1.492 0-.535-.135-.929-.407-1.193-.336-.323-.926-.494-1.605-.488l-4.055-.023V.024s1.812-.006 4.002-.006c.69-.012 1.953.123 2.856.999.614.593.921 1.404.921 2.409 0 1.915-1.304 2.82-2.461 3.19 0 0-.549.4-2.072.464h-1.564v5.682h-.006ZM34.154 32.668a3.41 3.41 0 0 0 3.418-3.402 3.41 3.41 0 0 0-3.418-3.402 3.41 3.41 0 0 0-3.417 3.402 3.41 3.41 0 0 0 3.418 3.402ZM57.573 6.457H32.095v4.113h25.478V6.457ZM57.06 27.169H42.647v4.112H57.06V27.17ZM57.573 52.07H32.09V37.697h4.131v10.176h21.353v4.195Z"/>
    </g>
    <defs>
        <clipPath id="a">
            <path fill="#fff" d="M0 0h254v56H0z"/>
        </clipPath>
    </defs>
</svg>
