<svg id="Ebene_1" data-name="Ebene 1" xmlns="http://www.w3.org/2000/svg" viewBox="0 0 874.12 462.03">
  <defs>
    <style>.cls-2{isolation:isolate;font-family:ArialMT,Arial;font-size:40.93px}.cls-4{fill-rule:evenodd}</style>
  </defs>
    <g id="Layer_1" data-name="Layer 1">
      <path class="cls-4" d="m.51 101.35 224.24 100.84 226.07-101.35L225.91 0 .51 101.35z"/>
      <path d="m278.73 231.4-38.83 17.1.08-33.82 38.75 16.72z"/>
      <path class="cls-4" d="M224.79 209.01 0 107.51v248.52l224.79-101.35v-45.67zM.56 361.68l224.23-100.17v200.52L.56 361.68zM450.81 361.52l-219.88-99.78v200.29l219.88-100.51z"/>
    <g style="isolation:isolate;fill:none">
      <text class="cls-2" transform="translate(308.38 271.72)">
        <tspan x="0" y="0">Mixed Reality and </tspan>
      </text>
      <text transform="translate(645.06 271.72)" style="letter-spacing:-.02em;font-family:ArialMT,Arial;font-size:40.93px;isolation:isolate">
        <tspan x="0" y="0">V</tspan>
      </text>
      <text class="cls-2" transform="translate(671.63 271.72)">
        <tspan x="0" y="0">isualisation</tspan>
      </text>
    </g>
    <path d="M355.71 226.64H344.1l4.88-23 1.28-5.85H350l-2 4.85-11 24h-10.79L324.83 204c-.13-1.51-.17-3.59-.17-6.2h-.25c-.53 4-1.14 7.67-1.82 11l-3.78 17.85h-10.43l8.24-39h16.51l1.37 23.33c0 1.18-.07 2.41-.15 3.68h.16c.31-.88.64-1.79 1-2.74s.66-1.81 1-2.58l9.49-21.75h18l-8.27 39-.02.05Zm19.41 0h-11.77l8.26-39h11.77l-8.26 39Zm42-21.35a14.63 14.63 0 0 1-8.16 4.06v.1c2.85 1.05 4.65 3.39 5.41 7l2.18 10.22H404l-1.42-8.67c-.17-1.39-.71-2.7-1.58-3.8a4.279 4.279 0 0 0-3.38-1.29h-.12l-2.89 13.73h-11.79l8.27-39h15.32c4.31 0 7.69.87 10.1 2.62a8.778 8.778 0 0 1 3.62 7.47c.05 2.84-1.05 5.59-3.05 7.61l.04-.05Zm-10.57-8.48a4.438 4.438 0 0 0-3.23-1.09h-2.1l-2 8.93h2.6c1.53.08 3.03-.41 4.21-1.39a4.284 4.284 0 0 0 1.62-3.4c.06-1.12-.33-2.22-1.09-3.05Zm45 0h-12.63l-1.17 5.69h11.77l-1.95 9.2h-11.75l-1.22 5.75H448l-2 9.21h-25.2l8.26-39h24.31l-1.95 9.2.13-.05Zm22.46 29.85h-13.2l-4.36-39h12l1.32 25.57c0 .94-.07 1.89-.21 2.82h.27c.15-.49.33-1 .56-1.62s4.13-9.51 11.72-26.77H495l-21 39Zm28.56 0h-11.84l8.27-39h11.75l-8.25 39h.07Z"/>
    </g>
</svg>


