<svg width="95" height="96" viewBox="0 0 95 96" fill="none" xmlns="http://www.w3.org/2000/svg">
<path d="M62.3435 47.897C58.5287 47.897 54.84 46.1937 51.9529 43.1024C49.1456 40.0873 47.4311 36.0665 47.1287 31.7841C46.8058 27.2159 48.1993 23.0151 51.0512 19.9536C53.903 16.8921 57.8904 15.2407 62.3435 15.2407C66.7651 15.2407 70.7637 16.9218 73.6062 19.9759C76.4766 23.0597 77.8738 27.253 77.551 31.7822C77.2411 36.0702 75.5285 40.0892 72.7267 43.1006C69.8471 46.1937 66.1602 47.897 62.3435 47.897ZM86.8042 80.5532H37.8847C37.0982 80.5574 36.3212 80.3811 35.6136 80.0379C34.9059 79.6947 34.2864 79.1937 33.8027 78.5734C33.2897 77.9011 32.9354 77.1213 32.7664 76.2927C32.5974 75.464 32.618 74.6078 32.8267 73.7882C34.389 67.5149 38.2596 62.3121 44.0189 58.744C49.1307 55.5786 55.6379 53.8345 62.3435 53.8345C69.1809 53.8345 75.5174 55.5044 80.6589 58.668C86.4312 62.2175 90.3073 67.4499 91.8622 73.7993C92.0684 74.6195 92.0867 75.4757 91.9158 76.3039C91.7449 77.1322 91.3891 77.9112 90.8751 78.5827C90.3919 79.2001 89.7738 79.6986 89.0682 80.0402C88.3626 80.3818 87.5881 80.5573 86.8042 80.5532ZM27.2752 48.6392C20.7458 48.6392 15.005 42.5681 14.4724 35.1072C14.209 31.285 15.4002 27.7503 17.8123 25.1582C20.1984 22.5921 23.5642 21.1782 27.2752 21.1782C30.9861 21.1782 34.326 22.5995 36.7251 25.1805C39.1557 27.793 40.3432 31.3202 40.0649 35.1109C39.5324 42.5699 33.7934 48.6392 27.2752 48.6392ZM39.4582 54.4746C36.1944 52.8789 31.9584 52.0811 27.277 52.0811C21.8108 52.0811 16.5023 53.5061 12.3275 56.0926C7.59422 59.0298 4.41024 63.3066 3.1244 68.4704C2.93623 69.2132 2.91843 69.9888 3.07234 70.7394C3.22624 71.49 3.54787 72.196 4.01317 72.8048C4.45467 73.3716 5.02029 73.8296 5.66651 74.1435C6.31274 74.4574 7.02236 74.619 7.74081 74.6157H28.3365C28.6841 74.6157 29.0207 74.4936 29.2876 74.2709C29.5544 74.0481 29.7346 73.7387 29.7968 73.3967C29.8172 73.2798 29.8431 73.1629 29.8728 73.0479C31.4463 66.7281 35.1331 61.3881 40.5807 57.4953C40.7811 57.3509 40.9423 57.1587 41.0496 56.9363C41.157 56.7138 41.2071 56.4681 41.1955 56.2214C41.1839 55.9747 41.1109 55.7348 40.9831 55.5234C40.8554 55.312 40.6769 55.1358 40.4639 55.0108C40.1725 54.8401 39.8386 54.6602 39.4582 54.4746Z" fill="#F2F2F2"/>
</svg>
