<svg width="284" height="284" viewBox="0 0 284 284" fill="none" xmlns="http://www.w3.org/2000/svg">
<path d="M77.4541 96.5925C74.9073 95.9206 72.7906 94.1523 71.6763 91.7656C70.5621 89.3789 70.5655 86.6207 71.6857 84.2369L91.3379 42.4133C92.8024 39.2965 95.9376 37.3082 99.3814 37.3125C102.825 37.3168 105.955 39.3128 107.412 42.4331L116.082 61.0024C116.391 60.8806 116.712 60.7749 117.041 60.6867C168.484 46.9025 221.362 77.4313 235.146 128.875C248.93 180.319 218.402 233.196 166.959 246.981C115.514 260.764 62.6369 230.235 48.8526 178.792C44.4691 162.433 44.5678 145.904 48.4069 130.535C49.5949 125.78 54.4129 122.888 59.1683 124.076C63.9237 125.263 66.8157 130.082 65.6277 134.838C62.5003 147.357 62.414 160.824 65.9978 174.199C77.2447 216.173 120.39 241.082 162.364 229.836C204.339 218.588 229.248 175.444 218.002 133.47C206.937 92.1807 165.012 67.404 123.695 77.3091L132.442 96.0448C133.899 99.1651 133.418 102.847 131.211 105.489C129.003 108.132 125.466 109.259 122.136 108.381L77.4541 96.5925Z" fill="black"/>
<path fill-rule="evenodd" clip-rule="evenodd" d="M116.293 155.333C116.293 141.872 127.206 130.958 140.668 130.958C154.13 130.958 165.043 141.872 165.043 155.333C165.043 168.796 154.13 179.708 140.668 179.708C127.206 179.708 116.293 168.796 116.293 155.333ZM140.668 140.708C132.591 140.708 126.043 147.257 126.043 155.333C126.043 163.41 132.591 169.958 140.668 169.958C148.745 169.958 155.293 163.41 155.293 155.333C155.293 147.257 148.745 140.708 140.668 140.708Z" fill="black"/>
<path d="M192.62 165.557L192.62 165.557C189.818 169.593 185.715 173.889 180.587 177.824C170.322 185.703 156.192 191.958 140.668 191.958C125.143 191.958 111.013 185.703 100.748 177.824C95.621 173.889 91.5173 169.593 88.7164 165.557C85.871 161.457 84.543 157.878 84.543 155.333C84.543 152.789 85.871 149.21 88.7164 145.11M192.62 165.557L88.7164 145.11M192.62 165.557C195.465 161.457 196.793 157.878 196.793 155.333C196.793 152.789 195.465 149.21 192.62 145.11L192.62 145.11C189.818 141.074 185.715 136.778 180.588 132.843C170.323 124.964 156.192 118.708 140.668 118.708C125.143 118.708 111.013 124.964 100.748 132.843L101.966 134.429L100.748 132.843C95.6211 136.778 91.5174 141.074 88.7164 145.11M192.62 165.557L90.7703 146.535L88.7164 145.11M196.522 168.266C193.403 172.761 188.939 177.402 183.48 181.593C172.571 189.964 157.451 196.708 140.668 196.708C123.885 196.708 108.764 189.964 97.8562 181.593C92.3968 177.402 87.9334 172.761 84.814 168.266C81.7387 163.834 79.793 159.289 79.793 155.333C79.793 151.378 81.7387 146.833 84.814 142.401L84.814 142.401C87.9335 137.906 92.3969 133.264 97.8562 129.074L96.3341 127.091L97.8562 129.074C108.764 120.702 123.885 113.958 140.668 113.958C157.451 113.958 172.571 120.702 183.48 129.074C188.939 133.264 193.402 137.906 196.522 142.401C199.597 146.833 201.543 151.378 201.543 155.333C201.543 159.289 199.597 163.834 196.522 168.266ZM196.522 168.266L198.576 169.691M196.522 168.266L198.576 169.691M198.576 169.691C195.289 174.428 190.636 179.252 185.002 183.576L198.576 169.691Z" fill="black" stroke="black" stroke-width="5"/>
</svg>
