<svg width="213" height="213" viewBox="0 0 213 213" fill="none" xmlns="http://www.w3.org/2000/svg">
<path d="M106.5 144.219C92.1616 144.219 79.6821 136.221 73.2958 124.412L61.5859 130.745C70.2044 146.682 87.0802 157.531 106.5 157.531C125.919 157.531 142.795 146.682 151.414 130.745L139.704 124.412C133.318 136.221 120.838 144.219 106.5 144.219Z" fill="black"/>
<path d="M73.2188 86.5312C73.2188 81.6298 77.1923 77.6562 82.0938 77.6562C86.9953 77.6562 90.9688 81.6298 90.9688 86.5312C90.9688 91.4329 86.9953 95.4062 82.0938 95.4062C77.1923 95.4062 73.2188 91.4329 73.2188 86.5312Z" fill="black"/>
<path d="M130.906 77.6562C126.005 77.6562 122.031 81.6298 122.031 86.5312C122.031 91.4329 126.005 95.4062 130.906 95.4062C135.808 95.4062 139.781 91.4329 139.781 86.5312C139.781 81.6298 135.808 77.6562 130.906 77.6562Z" fill="black"/>
<path fill-rule="evenodd" clip-rule="evenodd" d="M106.5 19.9688C58.7101 19.9688 19.9688 58.7101 19.9688 106.5C19.9688 154.29 58.7101 193.031 106.5 193.031C154.29 193.031 193.031 154.29 193.031 106.5C193.031 58.7101 154.29 19.9688 106.5 19.9688ZM33.2812 106.5C33.2812 66.0624 66.0624 33.2812 106.5 33.2812C146.937 33.2812 179.719 66.0624 179.719 106.5C179.719 146.937 146.937 179.719 106.5 179.719C66.0624 179.719 33.2812 146.937 33.2812 106.5Z" fill="black"/>
</svg>
