<svg width="540" height="539" viewBox="0 0 540 539" fill="none" xmlns="http://www.w3.org/2000/svg">
<path d="M404.162 179.906C404.162 186.796 403.641 193.565 402.636 200.176C388.288 194.889 372.785 192.003 356.61 192.003C323.582 192.003 293.355 204.035 270.049 223.969C246.743 204.035 216.517 192.003 183.489 192.003C167.313 192.003 151.808 194.889 137.46 200.176C136.455 193.566 135.934 186.797 135.934 179.906C135.934 105.952 195.979 46 270.048 46C344.117 46 404.162 105.952 404.162 179.906Z" fill="#8691DA"/>
<path d="M270.047 427.849C298.764 403.288 316.975 366.732 316.975 325.909C316.975 319.118 316.471 312.445 315.499 305.925C361.058 289.542 395.173 249.229 402.633 200.176C453.679 218.984 490.096 268.18 490.096 325.909C490.096 399.863 430.331 459.815 356.607 459.815C323.58 459.815 293.353 447.782 270.047 427.849Z" fill="#8691DA"/>
<path d="M137.46 200.176C86.4155 218.986 50 268.181 50 325.909C50 399.863 109.765 459.815 183.489 459.815C216.517 459.815 246.743 447.782 270.049 427.849C241.332 403.288 223.121 366.732 223.121 325.909C223.121 319.118 223.625 312.445 224.597 305.926C179.037 289.543 144.921 249.23 137.46 200.176Z" fill="#8691DA"/>
<path d="M224.598 305.926C229.471 273.256 246.109 244.444 270.049 223.969C293.989 244.444 310.628 273.255 315.501 305.925C301.307 311.03 286.003 313.811 270.048 313.811C254.094 313.811 238.791 311.03 224.598 305.926Z" fill="#182EC0"/>
<path d="M315.501 305.925C301.307 311.03 286.003 313.811 270.048 313.811C254.094 313.811 238.79 311.03 224.597 305.926C223.625 312.445 223.121 319.118 223.121 325.909C223.121 366.732 241.332 403.288 270.049 427.849C298.766 403.288 316.977 366.732 316.977 325.909C316.977 319.118 316.473 312.445 315.501 305.925Z" fill="#4F60CD"/>
<path d="M315.502 305.926C361.062 289.542 395.177 249.229 402.637 200.176C388.29 194.889 372.787 192.003 356.611 192.003C323.583 192.003 293.357 204.035 270.051 223.969C293.991 244.444 310.629 273.255 315.502 305.926Z" fill="#4F60CD"/>
<path d="M183.489 192.003C167.313 192.003 151.809 194.889 137.461 200.176C144.922 249.23 179.038 289.543 224.597 305.926C229.471 273.255 246.109 244.444 270.049 223.968C246.743 204.035 216.517 192.003 183.489 192.003Z" fill="#4F60CD"/>
<path d="M539.451 260.304C539.518 262.317 539.562 264.334 539.585 266.358L538.085 266.374C538.096 267.38 538.102 268.388 538.102 269.396C538.102 270.405 538.096 271.412 538.085 272.418L539.585 272.435C539.562 274.458 539.518 276.476 539.451 278.488L537.952 278.438C537.885 280.444 537.796 282.444 537.686 284.438L539.184 284.521C539.071 286.543 538.937 288.559 538.781 290.57L537.285 290.453C537.129 292.452 536.952 294.445 536.752 296.431L538.245 296.581C538.043 298.596 537.818 300.605 537.572 302.607L536.083 302.424C535.838 304.416 535.571 306.401 535.282 308.379L536.766 308.596C536.474 310.597 536.16 312.591 535.824 314.577L534.345 314.327C534.01 316.307 533.653 318.28 533.275 320.246L534.748 320.529C534.366 322.512 533.963 324.488 533.538 326.456L532.072 326.139C531.648 328.103 531.202 330.06 530.735 332.008L532.193 332.357C531.723 334.32 531.231 336.273 530.717 338.219L529.267 337.836C528.754 339.78 528.22 341.715 527.665 343.641L529.106 344.057C528.547 345.994 527.968 347.923 527.367 349.843L525.935 349.395C525.335 351.313 524.713 353.223 524.071 355.123L525.492 355.603C524.846 357.514 524.179 359.415 523.492 361.307L522.082 360.794C521.396 362.683 520.689 364.561 519.961 366.43L521.359 366.974C520.627 368.854 519.874 370.724 519.102 372.584L517.716 372.008C516.946 373.862 516.155 375.706 515.344 377.539L516.716 378.146C515.899 379.992 515.062 381.827 514.206 383.65L512.848 383.012C511.995 384.829 511.122 386.635 510.229 388.429L511.572 389.097C510.673 390.904 509.754 392.7 508.816 394.484L507.488 393.785C506.554 395.561 505.601 397.325 504.628 399.077L505.94 399.805C504.96 401.57 503.961 403.322 502.943 405.063L501.649 404.305C500.636 406.037 499.604 407.756 498.554 409.462L499.831 410.249C498.773 411.968 497.697 413.674 496.601 415.367L495.342 414.552C494.252 416.236 493.145 417.907 492.019 419.565L493.26 420.408C492.126 422.077 490.974 423.734 489.803 425.376L488.582 424.506C487.418 426.14 486.236 427.759 485.037 429.365L486.239 430.263C485.032 431.88 483.807 433.483 482.564 435.071L481.383 434.147C480.147 435.727 478.894 437.293 477.624 438.844L478.784 439.794C477.506 441.355 476.211 442.901 474.899 444.433L473.76 443.457C472.455 444.98 471.133 446.489 469.795 447.982L470.912 448.983C469.565 450.485 468.203 451.972 466.823 453.443L465.729 452.417C464.357 453.881 462.969 455.329 461.566 456.761L462.637 457.811C461.225 459.251 459.797 460.676 458.354 462.084L457.306 461.011C455.871 462.411 454.42 463.796 452.953 465.164L453.977 466.261C452.502 467.637 451.012 468.996 449.507 470.339L448.509 469.22C447.013 470.555 445.501 471.874 443.975 473.175L444.948 474.317C443.414 475.625 441.865 476.917 440.301 478.192L439.354 477.029C437.8 478.296 436.231 479.545 434.648 480.778L435.57 481.961C433.979 483.2 432.373 484.422 430.754 485.626L429.859 484.422C428.25 485.617 426.628 486.796 424.992 487.956L425.86 489.179C424.214 490.346 422.556 491.495 420.883 492.626L420.043 491.383C418.383 492.505 416.71 493.609 415.024 494.695L415.836 495.956C414.141 497.048 412.432 498.122 410.711 499.176L409.927 497.897C408.219 498.944 406.498 499.972 404.764 500.981L405.519 502.278C403.777 503.292 402.022 504.288 400.255 505.264L399.53 503.951C397.776 504.92 396.01 505.87 394.233 506.801L394.929 508.13C393.143 509.065 391.346 509.981 389.537 510.877L388.871 509.532C387.076 510.422 385.269 511.292 383.45 512.142L384.086 513.501C382.261 514.354 380.424 515.188 378.577 516.001L377.973 514.628C376.138 515.436 374.293 516.224 372.438 516.992L373.011 518.378C371.151 519.148 369.279 519.898 367.398 520.627L366.856 519.228C364.986 519.953 363.107 520.657 361.217 521.341L361.727 522.751C359.835 523.436 357.933 524.1 356.021 524.743L355.543 523.322C353.642 523.961 351.731 524.58 349.811 525.179L350.257 526.611C348.337 527.209 346.408 527.786 344.47 528.342L344.056 526.901C342.129 527.454 340.193 527.986 338.249 528.496L338.63 529.947C336.684 530.458 334.73 530.948 332.767 531.417L332.419 529.958C330.47 530.423 328.513 530.867 326.549 531.289L326.864 532.756C324.896 533.179 322.92 533.58 320.937 533.96L320.654 532.487C318.689 532.864 316.715 533.219 314.734 533.552L314.983 535.032C312.997 535.366 311.003 535.679 309.002 535.97L308.786 534.485C306.807 534.773 304.822 535.039 302.83 535.283L303.012 536.772C301.01 537.017 299.001 537.241 296.986 537.442L296.837 535.949C294.85 536.148 292.857 536.325 290.858 536.48L290.974 537.975C288.964 538.131 286.948 538.265 284.926 538.376L284.843 536.879C282.849 536.989 280.849 537.077 278.843 537.143L278.893 538.642C276.88 538.709 274.863 538.754 272.84 538.776L272.823 537.276C271.817 537.287 270.809 537.293 269.801 537.293C268.792 537.293 267.785 537.287 266.779 537.276L266.762 538.776C264.739 538.754 262.721 538.709 260.709 538.642L260.758 537.143C258.753 537.077 256.753 536.989 254.759 536.879L254.676 538.376C252.654 538.265 250.637 538.131 248.627 537.975L248.743 536.48C246.744 536.325 244.751 536.148 242.765 535.949L242.616 537.442C240.6 537.241 238.591 537.017 236.589 536.772L236.772 535.283C234.78 535.039 232.794 534.773 230.816 534.485L230.6 535.97C228.599 535.679 226.605 535.366 224.618 535.031L224.867 533.552C222.886 533.219 220.913 532.864 218.947 532.487L218.665 533.96C216.681 533.58 214.706 533.179 212.738 532.756L213.053 531.289C211.088 530.867 209.131 530.423 207.183 529.958L206.834 531.417C204.872 530.948 202.917 530.458 200.972 529.947L201.353 528.496C199.408 527.986 197.472 527.454 195.546 526.901L195.132 528.342C193.193 527.786 191.264 527.209 189.344 526.611L189.79 525.179C187.87 524.58 185.96 523.961 184.059 523.322L183.58 524.743C181.669 524.1 179.767 523.436 177.874 522.751L178.385 521.341C176.495 520.657 174.615 519.953 172.746 519.228L172.204 520.627C170.322 519.898 168.451 519.148 166.59 518.378L167.164 516.992C165.308 516.224 163.463 515.436 161.629 514.628L161.024 516.001C159.177 515.188 157.341 514.354 155.516 513.501L156.151 512.142C154.333 511.292 152.526 510.422 150.73 509.532L150.065 510.877C148.256 509.981 146.458 509.065 144.673 508.13L145.369 506.801C143.591 505.871 141.826 504.92 140.072 503.951L139.346 505.264C137.579 504.288 135.825 503.292 134.082 502.278L134.837 500.982C133.104 499.972 131.383 498.944 129.674 497.897L128.891 499.176C127.169 498.122 125.461 497.048 123.765 495.956L124.578 494.695C122.891 493.609 121.218 492.505 119.558 491.383L118.718 492.626C117.046 491.495 115.387 490.346 113.742 489.179L114.61 487.956C112.974 486.796 111.351 485.618 109.743 484.422L108.848 485.626C107.228 484.422 105.623 483.2 104.032 481.961L104.953 480.778C103.37 479.545 101.802 478.296 100.248 477.029L99.3003 478.192C97.7365 476.917 96.1874 475.625 94.6531 474.317L95.6266 473.175C94.1004 471.874 92.5891 470.555 91.0928 469.22L90.0942 470.339C88.5892 468.996 87.0993 467.637 85.6249 466.261L86.6483 465.164C85.1818 463.796 83.7307 462.411 82.2952 461.011L81.2477 462.084C79.8042 460.676 78.3765 459.251 76.9648 457.811L78.0361 456.761C76.6322 455.329 75.2442 453.881 73.8726 452.417L72.7782 453.443C71.399 451.972 70.0362 450.485 68.69 448.983L69.807 447.982C68.4686 446.489 67.1467 444.98 65.8417 443.457L64.7026 444.433C63.3905 442.902 62.0952 441.355 60.8172 439.794L61.9778 438.844C60.7076 437.293 59.4546 435.727 58.2189 434.147L57.0373 435.071C55.7948 433.483 54.5698 431.88 53.3625 430.263L54.5644 429.366C53.3652 427.759 52.1836 426.14 51.0199 424.506L49.7982 425.376C48.628 423.734 47.4758 422.078 46.3418 420.408L47.5827 419.565C46.4569 417.907 45.3491 416.236 44.2598 414.552L43.0003 415.367C41.9051 413.674 40.8283 411.968 39.7703 410.249L41.0477 409.462C39.9975 407.756 38.9658 406.037 37.9531 404.306L36.6583 405.063C35.6404 403.323 34.6414 401.57 33.6618 399.805L34.9733 399.077C34.0008 397.325 33.0473 395.561 32.1133 393.785L30.7858 394.484C29.8475 392.7 28.9286 390.904 28.0295 389.097L29.3725 388.429C28.4798 386.635 27.6067 384.829 26.7534 383.012L25.3957 383.65C24.5392 381.827 23.7025 379.992 22.886 378.146L24.2578 377.539C23.4468 375.706 22.6559 373.863 21.8852 372.008L20.5 372.584C19.7272 370.724 18.9746 368.854 18.2426 366.974L19.6404 366.43C18.9129 364.561 18.2058 362.683 17.5194 360.794L16.1096 361.307C15.4222 359.415 14.7554 357.514 14.1095 355.603L15.5305 355.123C14.8882 353.223 14.2667 351.313 13.6662 349.395L12.2347 349.843C11.6339 347.923 11.0542 345.994 10.4956 344.057L11.9369 343.641C11.3816 341.715 10.8474 339.78 10.3346 337.836L8.88421 338.219C8.37093 336.274 7.87888 334.32 7.40835 332.357L8.86699 332.008C8.39987 330.06 7.95406 328.103 7.52982 326.139L6.06363 326.456C5.63868 324.488 5.23526 322.512 4.85362 320.529L6.32659 320.246C5.9484 318.28 5.59172 316.307 5.2568 314.327L3.7778 314.577C3.44187 312.591 3.12771 310.597 2.83557 308.596L4.31984 308.379C4.03103 306.401 3.76388 304.416 3.51862 302.424L2.02986 302.607C1.78337 300.605 1.55887 298.596 1.35662 296.581L2.84912 296.431C2.64978 294.445 2.47217 292.452 2.31653 290.453L0.821055 290.57C0.664547 288.559 0.530133 286.543 0.418054 284.521L1.91575 284.438C1.80523 282.444 1.71654 280.444 1.64993 278.438L0.150761 278.488C0.0839319 276.476 0.0392034 274.458 0.0168098 272.435L1.51672 272.418C1.50558 271.412 1.5 270.405 1.5 269.396C1.5 268.388 1.50558 267.38 1.51672 266.374L0.0168101 266.358C0.0392038 264.334 0.0839323 262.317 0.150761 260.304L1.64993 260.354C1.71654 258.349 1.80523 256.349 1.91575 254.354L0.418053 254.271C0.530132 252.249 0.664547 250.233 0.821055 248.223L2.31653 248.339C2.47217 246.341 2.64978 244.348 2.84912 242.361L1.35661 242.212C1.55887 240.196 1.78336 238.188 2.02986 236.186L3.51862 236.369C3.76387 234.377 4.03103 232.392 4.31984 230.413L2.83557 230.197C3.1277 228.196 3.44186 226.202 3.7778 224.216L5.2568 224.466C5.59172 222.485 5.9484 220.512 6.32659 218.547L4.85361 218.263C5.23525 216.28 5.63867 214.305 6.06362 212.337L7.52981 212.654C7.95405 210.689 8.39986 208.733 8.86698 206.785L7.40833 206.435C7.87887 204.473 8.37092 202.519 8.8842 200.574L10.3346 200.956C10.8474 199.013 11.3816 197.078 11.9369 195.151L10.4956 194.736C11.0542 192.798 11.6339 190.869 12.2346 188.95L13.6662 189.398C14.2667 187.479 14.8882 185.57 15.5305 183.67L14.1095 183.189C14.7554 181.278 15.4222 179.377 16.1096 177.486L17.5194 177.998C18.2058 176.11 18.9129 174.231 19.6404 172.363L18.2426 171.818C18.9746 169.938 19.7272 168.068 20.5 166.209L21.8852 166.784C22.6559 164.93 23.4468 163.086 24.2577 161.253L22.886 160.646C23.7025 158.801 24.5392 156.966 25.3957 155.142L26.7534 155.78C27.6067 153.963 28.4798 152.158 29.3725 150.364L28.0295 149.695C28.9286 147.888 29.8475 146.093 30.7857 144.309L32.1133 145.007C33.0473 143.232 34.0007 141.468 34.9732 139.716L33.6617 138.988C34.6414 137.223 35.6403 135.47 36.6583 133.73L37.953 134.487C38.9658 132.756 39.9974 131.037 41.0477 129.33L39.7703 128.544C40.8283 126.825 41.905 125.119 43.0003 123.425L44.2598 124.24C45.3491 122.556 46.4568 120.885 47.5827 119.227L46.3418 118.385C47.4757 116.715 48.628 115.059 49.7982 113.416L51.0199 114.286C52.1836 112.653 53.3652 111.033 54.5644 109.427L53.3625 108.53C54.5698 106.913 55.7948 105.31 57.0373 103.721L58.2188 104.645C59.4545 103.065 60.7076 101.5 61.9778 99.9485L60.8172 98.9982C62.0952 97.4373 63.3904 95.8911 64.7026 94.3596L65.8416 95.3356C67.1467 93.8124 68.4686 92.304 69.807 90.8107L68.69 89.8096C70.0362 88.3076 71.399 86.8208 72.7781 85.3494L73.8725 86.3753C75.2442 84.9119 76.6321 83.4639 78.036 82.0315L76.9648 80.9815C78.3764 79.5413 79.8042 78.1168 81.2476 76.7083L82.2952 77.7819C83.7306 76.3813 85.1818 74.9966 86.6483 73.6281L85.6249 72.5314C87.0993 71.1556 88.5891 69.7962 90.0942 68.4533L91.0928 69.5725C92.5891 68.2375 94.1004 66.919 95.6265 65.6172L94.6531 64.476C96.1874 63.1673 97.7365 61.8755 99.3003 60.6009L100.248 61.7636C101.802 60.4969 103.37 59.2472 104.953 58.0149L104.032 56.8314C105.623 55.5924 107.228 54.3708 108.848 53.1669L109.743 54.3708C111.351 53.1751 112.974 51.9969 114.61 50.8366L113.742 49.6131C115.387 48.4464 117.046 47.2976 118.718 46.167L119.558 47.4097C121.218 46.2874 122.891 45.1832 124.578 44.0973L123.765 42.8362C125.461 41.7443 127.169 40.671 128.891 39.6164L129.674 40.8954C131.383 39.8486 133.104 38.8204 134.837 37.8111L134.082 36.5148C135.825 35.5003 137.579 34.5047 139.346 33.5283L140.072 34.8412C141.826 33.8721 143.591 32.9221 145.369 31.9913L144.673 30.6625C146.458 29.7275 148.256 28.8119 150.065 27.9159L150.73 29.2601C152.526 28.3707 154.333 27.5008 156.151 26.6507L155.516 25.2919C157.341 24.4385 159.177 23.6049 161.024 22.7914L161.629 24.1642C163.463 23.3563 165.308 22.5684 167.164 21.8007L166.59 20.4146C168.451 19.6448 170.322 18.8951 172.204 18.1659L172.746 19.5645C174.615 18.8399 176.495 18.1356 178.385 17.4519L177.874 16.0414C179.767 15.3567 181.669 14.6925 183.58 14.0492L184.059 15.4709C185.96 14.8311 187.87 14.2121 189.79 13.614L189.344 12.1819C191.264 11.5837 193.193 11.0064 195.132 10.4501L195.545 11.892C197.472 11.339 199.408 10.807 201.353 10.2962L200.972 8.84542C202.917 8.33435 204.872 7.84442 206.834 7.37591L207.183 8.83492C209.131 8.36976 211.088 7.92583 213.053 7.50338L212.738 6.03689C214.706 5.6138 216.681 5.21215 218.665 4.83218L218.947 6.30539C220.913 5.92883 222.886 5.57368 224.867 5.2402L224.618 3.76102C226.605 3.42657 228.599 3.1138 230.6 2.82297L230.816 4.30737C232.794 4.01983 234.78 3.75384 236.772 3.50965L236.589 2.02079C238.591 1.7754 240.6 1.55191 242.616 1.35056L242.765 2.84313C244.751 2.64467 246.744 2.46784 248.743 2.31289L248.627 0.817377C250.637 0.661565 252.654 0.52775 254.676 0.416172L254.759 1.91389C256.753 1.80386 258.753 1.71558 260.758 1.64927L260.709 0.150086C262.721 0.0835558 264.739 0.0390276 266.762 0.0167344L266.779 1.51664C267.785 1.50556 268.792 1.5 269.801 1.5C270.81 1.5 271.817 1.50556 272.823 1.51664L272.84 0.0167344C274.863 0.0390276 276.88 0.0835558 278.893 0.150086L278.843 1.64927C280.849 1.71558 282.849 1.80387 284.843 1.91389L284.926 0.416172C286.948 0.527751 288.964 0.661566 290.974 0.817377L290.858 2.31289C292.857 2.46784 294.85 2.64467 296.837 2.84313L296.986 1.35056C299.001 1.55191 301.01 1.7754 303.012 2.02079L302.83 3.50965C304.822 3.75384 306.807 4.01983 308.786 4.30737L309.002 2.82297C311.003 3.1138 312.997 3.42657 314.983 3.76102L314.734 5.2402C316.715 5.57368 318.689 5.92883 320.654 6.30539L320.937 4.83218C322.92 5.21215 324.896 5.6138 326.864 6.03689L326.549 7.50338C328.513 7.92583 330.47 8.36976 332.419 8.83492L332.767 7.37591C334.73 7.84442 336.684 8.33434 338.63 8.84542L338.249 10.2962C340.193 10.807 342.129 11.339 344.056 11.892L344.47 10.4501C346.408 11.0064 348.337 11.5837 350.257 12.1819L349.811 13.614C351.731 14.2121 353.642 14.8311 355.543 15.4709L356.021 14.0492C357.933 14.6925 359.835 15.3567 361.727 16.0414L361.217 17.4519C363.107 18.1356 364.986 18.8399 366.856 19.5645L367.398 18.1658C369.279 18.8951 371.151 19.6447 373.011 20.4146L372.438 21.8007C374.293 22.5684 376.138 23.3563 377.973 24.1642L378.577 22.7914C380.424 23.6049 382.261 24.4385 384.086 25.2918L383.45 26.6506C385.268 27.5008 387.076 28.3707 388.871 29.2601L389.537 27.9159C391.346 28.8119 393.143 29.7275 394.929 30.6625L394.233 31.9913C396.01 32.922 397.776 33.8721 399.53 34.8412L400.255 33.5283C402.022 34.5047 403.777 35.5003 405.519 36.5148L404.764 37.811C406.498 38.8204 408.219 39.8486 409.927 40.8954L410.711 39.6163C412.432 40.671 414.141 41.7443 415.836 42.8362L415.024 44.0973C416.71 45.1831 418.383 46.2874 420.043 47.4096L420.883 46.167C422.556 47.2976 424.214 48.4463 425.86 49.6131L424.992 50.8366C426.628 51.9969 428.25 53.175 429.859 54.3707L430.754 53.1669C432.373 54.3708 433.979 55.5923 435.57 56.8313L434.648 58.0149C436.231 59.2472 437.8 60.4968 439.354 61.7635L440.301 60.6008C441.865 61.8755 443.414 63.1673 444.948 64.476L443.975 65.6172C445.501 66.9189 447.012 68.2375 448.509 69.5725L449.507 68.4533C451.012 69.7961 452.502 71.1556 453.977 72.5314L452.953 73.6281C454.42 74.9966 455.871 76.3812 457.306 77.7819L458.354 76.7083C459.797 78.1167 461.225 79.5413 462.637 80.9815L461.565 82.0315C462.969 83.4638 464.357 84.9118 465.729 86.3752L466.823 85.3494C468.203 86.8208 469.565 88.3075 470.912 89.8095L469.795 90.8107C471.133 92.304 472.455 93.8124 473.76 95.3356L474.899 94.3596C476.211 95.891 477.506 97.4373 478.784 98.9982L477.624 99.9485C478.894 101.5 480.147 103.065 481.383 104.645L482.564 103.721C483.807 105.31 485.032 106.913 486.239 108.53L485.037 109.427C486.236 111.033 487.418 112.653 488.582 114.286L489.803 113.416C490.974 115.059 492.126 116.715 493.26 118.385L492.019 119.227C493.145 120.885 494.252 122.556 495.342 124.24L496.601 123.425C497.697 125.119 498.773 126.825 499.831 128.544L498.554 129.33C499.604 131.036 500.636 132.756 501.648 134.487L502.943 133.73C503.961 135.47 504.96 137.223 505.94 138.988L504.628 139.716C505.601 141.468 506.554 143.231 507.488 145.007L508.816 144.309C509.754 146.093 510.673 147.888 511.572 149.695L510.229 150.364C511.122 152.158 511.995 153.963 512.848 155.78L514.206 155.142C515.062 156.966 515.899 158.801 516.716 160.646L515.344 161.253C516.155 163.086 516.946 164.93 517.716 166.784L519.102 166.209C519.874 168.068 520.627 169.938 521.359 171.818L519.961 172.363C520.689 174.231 521.396 176.11 522.082 177.998L523.492 177.486C524.179 179.377 524.846 181.278 525.492 183.189L524.071 183.67C524.713 185.57 525.335 187.479 525.935 189.398L527.367 188.95C527.968 190.869 528.547 192.798 529.106 194.736L527.665 195.151C528.22 197.078 528.754 199.013 529.267 200.956L530.717 200.574C531.231 202.519 531.723 204.473 532.193 206.435L530.735 206.785C531.202 208.733 531.648 210.689 532.072 212.654L533.538 212.337C533.963 214.304 534.366 216.28 534.748 218.263L533.275 218.547C533.653 220.512 534.01 222.485 534.345 224.466L535.824 224.216C536.16 226.202 536.474 228.196 536.766 230.197L535.282 230.413C535.571 232.392 535.838 234.377 536.083 236.369L537.572 236.186C537.818 238.188 538.043 240.196 538.245 242.212L536.752 242.361C536.952 244.348 537.129 246.341 537.285 248.339L538.781 248.223C538.937 250.233 539.071 252.249 539.184 254.271L537.686 254.354C537.796 256.349 537.885 258.349 537.952 260.354L539.451 260.304Z" stroke="#182EC0" stroke-width="3" stroke-dasharray="6 6"/>
</svg>
