<svg width="82" height="83" viewBox="0 0 82 83" fill="none" xmlns="http://www.w3.org/2000/svg">
<path fill-rule="evenodd" clip-rule="evenodd" d="M30.1233 5.83838C29.4096 5.83858 28.7206 6.09938 28.1856 6.57177C27.6507 7.04417 27.3066 7.69564 27.2181 8.40381L25.7304 20.2762H56.2696L54.7819 8.40381C54.6934 7.69564 54.3493 7.04417 53.8144 6.57177C53.2794 6.09938 52.5904 5.83858 51.8767 5.83838H30.1233ZM57.5699 27.5918C57.486 27.5966 57.402 27.5986 57.318 27.5977H24.682L24.4301 27.5918H13.8053C6.191 27.5918 0 33.7418 0 41.3561V62.8108C0 71.8132 8.44014 78.2678 17.0736 76.7332C24.3833 75.4271 33.3564 74.1971 41 74.1971C48.6436 74.1971 57.6167 75.4271 64.9264 76.7332C73.5599 78.2678 82 71.8132 82 62.8108V41.3502C82 33.736 75.809 27.586 68.1947 27.586L57.5699 27.5918ZM21.0213 46.8384C21.0213 44.8177 22.6613 43.1777 24.682 43.1777H57.318C58.2889 43.1777 59.22 43.5634 59.9065 44.2499C60.593 44.9364 60.9787 45.8675 60.9787 46.8384C60.9787 47.8093 60.593 48.7404 59.9065 49.4269C59.22 50.1134 58.2889 50.4991 57.318 50.4991H24.682C23.7111 50.4991 22.78 50.1134 22.0935 49.4269C21.407 48.7404 21.0213 47.8093 21.0213 46.8384Z" fill="#F2F2F2"/>
</svg>
